<?xml version="1.0" encoding="UTF-8" standalone="no"?>
<!-- Created with Inkscape (http://www.inkscape.org/) -->

<svg
   xmlns:dc="http://purl.org/dc/elements/1.1/"
   xmlns:cc="http://creativecommons.org/ns#"
   xmlns:rdf="http://www.w3.org/1999/02/22-rdf-syntax-ns#"
   xmlns:svg="http://www.w3.org/2000/svg"
   xmlns="http://www.w3.org/2000/svg"
   xmlns:sodipodi="http://sodipodi.sourceforge.net/DTD/sodipodi-0.dtd"
   xmlns:inkscape="http://www.inkscape.org/namespaces/inkscape"
   width="210mm"
   height="297mm"
   viewBox="0 0 210 297"
   version="1.1"
   id="svg8"
   inkscape:version="0.92.4 (unknown)"
   sodipodi:docname="biowings.svg">
  <defs
     id="defs2">
    <clipPath
       id="_clipPath_kgiX7dVyry3SATIQ5yU66vZ7IDschVia">
      <rect
         id="rect815"
         height="20"
         width="22"
         y="305.5"
         x="479.5" />
    </clipPath>
    <clipPath
       id="_clipPath_ra1QaU5a3m3kpDtTEQfgVRkrybSl91Ri">
      <rect
         id="rect860"
         height="23.243"
         width="21.278"
         y="321.878"
         x="529.861" />
    </clipPath>
    <clipPath
       id="_clipPath_wzN6V1jZhIfT6VDeUGmoc8y9nlmcbSaI">
      <rect
         id="rect934"
         height="46"
         width="33"
         y="358.5"
         x="483.5" />
    </clipPath>
    <clipPath
       id="_clipPath_avVotNOzR81IG8Aff6okd2qMcO5bGIOl">
      <rect
         id="rect971"
         height="46.049"
         width="33.001"
         y="270.6"
         x="632.625" />
    </clipPath>
  </defs>
  <sodipodi:namedview
     id="base"
     pagecolor="#ffffff"
     bordercolor="#666666"
     borderopacity="1.0"
     inkscape:pageopacity="0.0"
     inkscape:pageshadow="2"
     inkscape:zoom="1.4142136"
     inkscape:cx="1026.6592"
     inkscape:cy="796.33006"
     inkscape:document-units="px"
     inkscape:current-layer="layer1"
     showgrid="false"
     showborder="false"
     inkscape:snap-intersection-paths="true"
     inkscape:object-paths="true"
     inkscape:window-width="1920"
     inkscape:window-height="991"
     inkscape:window-x="0"
     inkscape:window-y="0"
     inkscape:window-maximized="1" />
  <metadata
     id="metadata5">
    <rdf:RDF>
      <cc:Work
         rdf:about="">
        <dc:format>image/svg+xml</dc:format>
        <dc:type
           rdf:resource="http://purl.org/dc/dcmitype/StillImage" />
        <dc:title />
      </cc:Work>
    </rdf:RDF>
  </metadata>
  <g
     inkscape:label="Layer 1"
     inkscape:groupmode="layer"
     id="layer1">
    <rect
       style="fill:#000000;fill-opacity:0.82666665;stroke:none;stroke-width:1.60430121;stroke-miterlimit:4;stroke-dasharray:none;stroke-opacity:1"
       id="rect834"
       width="132.29167"
       height="132.29167"
       x="169.12814"
       y="20.462971"
       ry="39.101532"
       inkscape:export-xdpi="96"
       inkscape:export-ydpi="96" />
    <g
       id="g930"
       inkscape:export-filename="/home/lorforlinux/Github/biowings.github.io/assets/images/logo.png"
       inkscape:export-xdpi="96"
       inkscape:export-ydpi="96"
       transform="matrix(6.0527567,0,0,6.0527567,-1078.0978,-956.69256)"
       style="fill:#ffffff">
      <g
         transform="matrix(0.11461241,0,0,0.11461241,142.58955,141.0355)"
         id="g978"
         clip-path="url(#_clipPath_avVotNOzR81IG8Aff6okd2qMcO5bGIOl)"
         style="isolation:isolate;fill:#ffffff;fill-opacity:1;stroke:none;stroke-opacity:1">
        <path
           id="path976"
           d="m 633.531,270.605 c -0.043,0.008 -0.086,0.02 -0.125,0.031 -0.465,0.105 -0.792,0.523 -0.781,1 0,6.941 1.492,11.867 3.844,15.531 2.086,3.254 4.832,5.496 7.656,7.344 -2.5,1.531 -4.926,3.297 -6.906,5.75 -2.774,3.434 -4.594,8.207 -4.594,15.375 -0.004,0.36 0.184,0.695 0.496,0.879 0.313,0.18 0.695,0.18 1.008,0 0.312,-0.184 0.5,-0.52 0.496,-0.879 0,-6.832 1.68,-11.059 4.156,-14.125 2.477,-3.066 5.844,-5 9.344,-7 3.5,-2 7.133,-4.066 9.906,-7.5 1.121,-1.39 2.059,-3.008 2.813,-4.906 0.027,-0.059 0.047,-0.125 0.062,-0.188 1.063,-2.758 1.719,-6.11 1.719,-10.281 0.007,-0.308 -0.128,-0.602 -0.367,-0.797 -0.238,-0.196 -0.553,-0.271 -0.853,-0.203 -0.465,0.105 -0.791,0.523 -0.78,1 0,0.352 -0.023,0.664 -0.031,1 h -20.156 c -0.551,0.05 -0.958,0.543 -0.907,1.094 0.051,0.55 0.543,0.957 1.094,0.906 H 660.5 c -0.06,0.669 -0.144,1.336 -0.25,2 h -19.219 c -0.55,0.05 -0.957,0.543 -0.906,1.094 0.05,0.55 0.543,0.957 1.094,0.906 h 18.656 c -0.164,0.676 -0.362,1.344 -0.594,2 h -16.843 c -0.551,0.05 -0.958,0.543 -0.907,1.094 0.051,0.55 0.543,0.957 1.094,0.906 h 15.813 c -0.339,0.692 -0.726,1.361 -1.157,2 -0.052,-0.004 -0.104,-0.004 -0.156,0 h -12.281 c -0.551,0.05 -0.957,0.543 -0.907,1.094 0.051,0.55 0.543,0.957 1.094,0.906 h 10.688 c -0.668,0.719 -1.389,1.388 -2.157,2 h -4.124 c -0.551,0.05 -0.958,0.543 -0.907,1.094 0.051,0.55 0.543,0.957 1.094,0.906 h 1.063 c -0.516,0.328 -1.032,0.656 -1.563,0.969 -3.074,-1.813 -5.914,-3.758 -8,-6.719 -2.11,-2.992 -3.5,-7.05 -3.5,-13.25 0.01,-0.288 -0.104,-0.566 -0.314,-0.763 -0.209,-0.198 -0.494,-0.295 -0.78,-0.268 -0.043,0.008 -0.086,0.02 -0.125,0.031 -0.465,0.105 -0.792,0.523 -0.781,1 0,6.504 1.512,11.05 3.875,14.406 2.102,2.98 4.84,4.965 7.656,6.688 -0.011,0.008 -0.02,0.023 -0.031,0.031 -0.344,0.195 -0.688,0.395 -1.031,0.594 -3.032,-1.89 -5.852,-4.032 -7.938,-7.282 -2.12,-3.307 -3.531,-7.78 -3.531,-14.437 0.01,-0.288 -0.104,-0.566 -0.314,-0.763 -0.209,-0.198 -0.494,-0.295 -0.78,-0.268 z m 31,0 c -0.043,0.008 -0.086,0.02 -0.125,0.031 -0.465,0.105 -0.792,0.523 -0.781,1 0,7.32 -1.695,12.008 -4.188,15.406 -2.492,3.399 -5.832,5.532 -9.312,7.594 -3.48,2.063 -7.102,4.031 -9.875,7.156 -2.773,3.125 -4.625,7.43 -4.625,13.844 -0.004,0.36 0.184,0.695 0.496,0.879 0.313,0.18 0.695,0.18 1.008,0 0.312,-0.184 0.5,-0.52 0.496,-0.879 0,-6.04 1.648,-9.715 4.125,-12.5 2.477,-2.785 5.855,-4.664 9.375,-6.75 3.52,-2.086 7.18,-4.395 9.938,-8.156 2.756,-3.762 4.562,-8.961 4.562,-16.594 0.01,-0.288 -0.104,-0.566 -0.314,-0.763 -0.209,-0.198 -0.494,-0.295 -0.78,-0.268 z m -9.093,25.125 c -0.398,0.075 -0.712,0.383 -0.794,0.78 -0.083,0.397 0.082,0.804 0.418,1.032 4.853,3.399 8.563,7.746 8.563,18.094 -0.004,0.36 0.184,0.695 0.496,0.879 0.313,0.18 0.695,0.18 1.008,0 0.312,-0.184 0.5,-0.52 0.496,-0.879 0,-10.852 -4.29,-16.117 -9.438,-19.719 -0.215,-0.16 -0.485,-0.227 -0.75,-0.187 z m -3,1.781 c -0.043,0.008 -0.086,0.02 -0.125,0.031 -0.395,0.082 -0.701,0.396 -0.774,0.793 -0.077,0.395 0.093,0.798 0.43,1.02 0.61,0.414 1.21,0.84 1.781,1.281 h -6.812 c -0.551,0.05 -0.958,0.543 -0.907,1.094 0.051,0.55 0.543,0.957 1.094,0.906 h 8.906 c 0.606,0.62 1.16,1.289 1.657,2 H 643.03 c -0.55,0.05 -0.957,0.543 -0.906,1.094 0.05,0.55 0.543,0.957 1.094,0.906 h 15.625 c 0.3,0.625 0.55,1.285 0.781,2 h -18.593 c -0.55,0.05 -0.957,0.543 -0.906,1.094 0.05,0.55 0.543,0.957 1.094,0.906 h 18.936 c 0.13,0.64 0.239,1.29 0.313,2 h -20.03 c -0.551,0.05 -0.958,0.543 -0.907,1.094 0.051,0.55 0.543,0.957 1.094,0.906 h 19.969 c 0.011,0.328 0.031,0.656 0.031,1 -0.004,0.36 0.184,0.695 0.496,0.879 0.313,0.18 0.695,0.18 1.008,0 0.312,-0.184 0.5,-0.52 0.496,-0.879 0,-0.7 -0.05,-1.352 -0.094,-2 0.004,-0.05 0.004,-0.105 0,-0.156 v -0.094 c -0.636,-8.188 -4.738,-12.492 -9.437,-15.688 -0.191,-0.137 -0.423,-0.203 -0.657,-0.187 z"
           inkscape:connector-curvature="0"
           style="fill:#ffffff;fill-opacity:1;stroke:none;stroke-opacity:1" />
      </g>
      <g
         transform="matrix(0.30293209,0,0,0.30293209,144.74927,123.82465)"
         id="g849"
         style="fill:#ffffff">
        <path
           d="m 271.59101,143.88591 c 0.23395,0.0748 0.33828,0.59445 0.25082,1.24883 -0.1062,0.79464 -0.77976,2.67518 -1.29678,3.6205 -0.13586,0.24843 -0.24142,0.4627 -0.2346,0.47592 0.0194,0.0376 0.87276,-0.65452 1.11826,-0.90704 0.12136,-0.12485 0.33337,-0.3664 0.4708,-0.53669 0.37921,-0.46989 0.65699,-0.57972 0.7802,-0.30837 0.0806,0.17765 0.0248,0.53421 -0.18912,1.20763 -0.43036,1.35621 -1.03398,2.47369 -2.01624,3.73477 -0.12171,0.15625 1.13115,-0.55364 1.39328,-0.78948 0.35493,-0.31929 0.43456,-0.36213 0.58364,-0.31447 0.30314,0.0969 0.34812,0.59535 0.11953,1.31997 -0.23775,0.75368 -0.6339,1.43774 -1.2468,2.15261 l -0.29727,0.34668 0.22979,-0.0866 c 0.33801,-0.1274 1.10612,-0.61477 1.40986,-0.89434 0.32879,-0.30263 0.42325,-0.33242 0.57065,-0.18107 0.25591,0.26275 0.20157,1.25246 -0.10916,1.9875 -0.21771,0.51494 -0.61072,1.12448 -0.98739,1.53076 -0.36331,0.39187 -0.34921,0.42168 0.0596,0.12662 0.31353,-0.22632 0.45554,-0.24688 0.58616,-0.0858 0.2314,0.28536 -0.0184,1.07849 -0.58122,1.84478 -0.38857,0.52906 -1.24552,1.4125 -1.83247,1.88912 -0.31271,0.2539 -0.35799,0.30538 -0.23133,0.26377 0.20213,-0.0664 0.75904,-0.37134 1.00054,-0.54795 0.51306,-0.37519 0.67385,0.075 0.30282,0.84753 -0.36649,0.76307 -0.99113,1.49982 -1.88867,2.22811 -0.22345,0.18132 -0.4363,0.35627 -0.47302,0.38864 -0.099,0.0871 0.36842,-0.0783 0.64508,-0.22834 0.43015,-0.23324 0.64109,-0.0353 0.48454,0.45445 -0.12312,0.38519 -0.3263,0.68087 -0.80572,1.17352 -0.72267,0.7426 -1.36983,1.22404 -2.33839,1.73915 l -0.64758,0.34425 0.27326,-0.0176 c 0.15025,-0.01 0.38269,-0.0365 0.51687,-0.0597 l 0.24399,-0.0423 0.099,0.13793 c 0.0789,0.11008 0.087,0.18539 0.04,0.37365 -0.084,0.33655 -0.34756,0.58939 -1.04724,1.00406 -1.03853,0.61549 -1.66651,0.85606 -2.71848,1.04164 l -0.62534,0.11045 0.54318,0.13842 c 0.75672,0.19287 0.76511,0.19612 0.8435,0.34819 0.0994,0.19274 -0.0161,0.5042 -0.27204,0.73387 -0.50701,0.45494 -1.84416,0.77338 -3.26587,0.77768 -0.58395,0.002 -1.59323,-0.10949 -1.96212,-0.21612 -0.17605,-0.0506 -0.17517,-0.0489 0.0596,0.12271 0.13092,0.0959 0.34515,0.2098 0.47576,0.25345 0.29873,0.0999 0.3839,0.23186 0.30607,0.47532 -0.11261,0.35234 -0.62934,0.60081 -1.24668,0.59902 -0.6691,-0.002 -2.34051,-0.66308 -3.30926,-1.30879 -0.16492,-0.10993 -0.28537,-0.17488 -0.26772,-0.14456 0.0769,0.13211 0.5999,0.83293 0.71596,0.95938 0.22968,0.25024 0.15363,0.42809 -0.21934,0.51176 -0.46322,0.10381 -1.35348,-0.0585 -1.80898,-0.33014 l -0.16509,-0.0984 0.0238,0.17518 c 0.0706,0.51787 -0.56631,0.61384 -1.69116,0.25483 -0.36658,-0.117 -0.67379,-0.24477 -0.83062,-0.34569 l -0.24866,-0.16033 -0.002,0.17669 c -0.003,0.21193 -0.14292,0.34883 -0.43392,0.4233 -0.15212,0.0391 -0.25193,0.0236 -0.5484,-0.0843 -0.52701,-0.19179 -0.97944,-0.63868 -1.33034,-1.31353 -0.21957,-0.42226 -0.2976,-0.63801 -0.47648,-1.31899 -0.0218,-0.0831 -0.0329,-0.0554 -0.0508,0.12652 -0.0484,0.49104 -0.035,0.78791 0.0523,1.15505 0.10391,0.43719 0.0956,0.49401 -0.0846,0.5757 -0.27711,0.12564 -0.85304,-0.21923 -1.29719,-0.77679 -0.24651,-0.30947 -0.55928,-0.86365 -0.7064,-1.25135 l -0.0895,-0.23594 -0.0357,0.20146 c -0.0832,0.46769 -0.37562,0.46375 -0.68416,-0.009 -0.21969,-0.3369 -0.6616,-1.30308 -0.72648,-1.5883 -0.024,-0.10553 -0.11609,-0.26377 -0.20477,-0.35166 -0.22268,-0.22078 -0.46009,-0.65454 -0.50809,-0.92846 -0.0584,-0.33283 0.0825,-0.74461 0.35474,-1.03734 0.46797,-0.50323 0.99239,-0.72526 1.86111,-0.78858 0.69302,-0.0505 0.85908,-0.12909 1.08846,-0.513 0.46274,-0.77449 1.2741,-1.21175 2.7048,-1.45774 0.27975,-0.0481 0.58399,-0.12337 0.67619,-0.16754 0.31271,-0.14983 0.7127,-0.67663 1.26953,-1.67202 0.35037,-0.6263 0.73635,-1.19187 1.01629,-1.48957 0.1863,-0.19812 0.2812,-0.35962 0.46337,-0.7868 0.50426,-1.18242 1.20716,-2.17436 1.97243,-2.78387 0.25675,-0.20449 0.9126,-0.56303 0.98671,-0.53934 0.0288,0.009 0.25586,-0.21015 0.50468,-0.48771 0.9519,-1.06176 2.43415,-2.40077 3.70088,-3.34298 1.19069,-0.88566 2.12347,-1.4269 4.06244,-2.35803 1.4275,-0.68551 2.48401,-1.38372 3.60299,-2.38101 1.17968,-1.05139 2.42993,-2.59078 2.9442,-3.62527 0.0945,-0.1901 0.20499,-0.41238 0.24586,-0.49384 0.0904,-0.18032 0.23355,-0.26079 0.37973,-0.21406 z m -0.0809,0.26883 c -0.0179,-0.0166 -0.0386,0.0253 -0.0925,0.13637 -1.33424,2.7486 -4.14691,5.37312 -7.20595,6.72411 -2.21272,0.97722 -4.15064,2.32248 -6.26865,4.35164 -0.32515,0.31152 -0.79651,0.79413 -1.04757,1.07242 -0.25105,0.2783 -0.45023,0.51811 -0.44255,0.53299 0.008,0.0149 0.20591,-0.13447 0.44023,-0.33195 0.84057,-0.70842 2.02306,-1.6265 2.86035,-2.22069 1.58289,-1.12334 2.31192,-1.54048 5.15415,-2.94952 0.69156,-0.34285 1.21647,-0.64714 1.64636,-0.95404 1.48139,-1.05755 2.82336,-2.46522 3.88322,-4.07358 0.18746,-0.28447 0.34632,-0.50648 0.35301,-0.4935 0.0254,0.0491 -0.4672,0.81313 -0.96331,1.49412 -0.88548,1.21553 -1.73006,2.11497 -2.78434,2.96508 -0.76057,0.61329 -1.32278,0.95823 -2.8988,1.77908 -1.85139,0.96429 -2.93399,1.64891 -4.43146,2.80271 l -0.41651,0.32096 0.55342,-0.26383 c 0.46971,-0.22396 0.57813,-0.25593 0.71845,-0.21108 0.23998,0.0767 0.28026,0.27052 0.1447,0.69463 -0.0584,0.18287 -0.10111,0.33408 -0.0956,0.33584 0.0524,0.0168 5.4667,-2.94121 5.86111,-3.2021 1.57804,-1.04385 2.90199,-2.40904 3.71505,-3.83101 0.42342,-0.74054 0.64599,-1.29688 1.05169,-2.62832 0.34901,-1.1454 0.38371,-1.29162 0.36433,-1.54572 -0.0117,-0.15438 -0.0401,-0.34091 -0.0628,-0.41421 -0.0155,-0.0496 -0.0252,-0.0805 -0.036,-0.0904 z m 0.91036,3.48921 c -0.032,-0.0218 -0.11621,0.0772 -0.43369,0.45629 -0.51653,0.61682 -1.16149,1.1651 -1.80164,1.53159 -0.19941,0.11417 -0.36054,0.27091 -0.61983,0.60315 -0.73657,0.94383 -1.80908,1.90686 -2.99796,2.69209 -0.32523,0.21479 -1.62329,0.94167 -2.88452,1.6151 -1.26123,0.67342 -2.51467,1.34576 -2.78556,1.49417 l -0.49247,0.26996 -0.21857,0.39923 c -0.1202,0.21958 -0.28195,0.49116 -0.35919,0.60365 -0.0772,0.11249 -0.13704,0.21033 -0.13302,0.2173 0.004,0.007 0.0941,-0.0473 0.20021,-0.12052 0.80309,-0.554 2.58873,-1.5885 4.40482,-2.55208 1.71906,-0.91209 2.70182,-1.55472 4.03598,-2.63932 0.99767,-0.81105 1.9403,-1.71297 2.74892,-2.62989 0.19738,-0.2238 0.36547,-0.39454 0.37327,-0.37944 0.0255,0.0496 -0.85347,1.04815 -1.56285,1.77581 -1.55626,1.59638 -3.2551,2.91737 -5.07427,3.94584 -0.85825,0.48522 -2.02535,1.17065 -2.77748,1.63106 -0.22013,0.13475 -0.34094,0.23254 -0.27213,0.22009 0.153,-0.0277 0.35372,0.0332 0.45558,0.13812 0.11162,0.11512 0.13305,0.29124 0.0806,0.65752 l -0.0463,0.32423 0.46252,-0.25378 c 1.09379,-0.59997 5.27847,-3.41892 6.48076,-4.36565 0.77331,-0.60892 1.66922,-1.72605 2.22483,-2.77392 0.52539,-0.99088 1.07379,-2.50821 1.01347,-2.80452 -0.006,-0.0283 -0.0108,-0.0489 -0.0215,-0.056 z m -0.0272,3.94093 c -0.0243,-0.0161 -0.15917,0.076 -0.29982,0.20471 -0.32175,0.29452 -1.13412,0.78802 -1.72816,1.04982 -0.29156,0.12849 -0.59829,0.31843 -0.85348,0.52846 -0.39173,0.32238 -1.74357,1.28589 -3.36347,2.39759 -1.65969,1.13899 -2.80611,1.8623 -3.66922,2.31486 -0.27349,0.1434 -0.50656,0.28958 -0.51789,0.32506 -0.0188,0.0588 -0.48166,0.71523 -0.64514,0.91483 -0.0376,0.0459 0.25918,-0.12339 0.65985,-0.3765 0.40067,-0.25311 1.40305,-0.86951 2.22718,-1.36983 3.54598,-2.15275 4.97881,-3.10674 6.52307,-4.343 0.42884,-0.3433 0.77514,-0.61072 0.76988,-0.5943 -0.0199,0.062 -1.0376,0.93266 -1.7506,1.49739 -1.12706,0.89265 -2.3099,1.72323 -4.85564,3.40971 -1.27641,0.8456 -2.63543,1.75506 -3.02021,2.02128 -0.38478,0.26621 -0.68927,0.48738 -0.67669,0.4914 0.0126,0.004 0.46376,-0.21208 1.00304,-0.48033 1.02328,-0.50899 1.15735,-0.54085 1.26658,-0.30024 0.0281,0.0618 0.0422,0.19948 0.031,0.30589 l -0.0205,0.1936 0.42707,-0.16633 c 1.01099,-0.39408 2.97515,-1.53105 4.36428,-2.52624 2.36852,-1.69681 3.60141,-3.07601 4.06181,-4.5436 0.12264,-0.39156 0.15813,-0.89384 0.0671,-0.95424 z m 0.67428,2.60009 c -0.0113,-0.003 -0.14974,0.10937 -0.30748,0.25117 -0.33306,0.29939 -1.0247,0.70091 -1.78948,1.03868 -0.4117,0.18185 -0.64565,0.32848 -0.99781,0.62511 -1.82859,1.54015 -4.76548,3.35585 -6.21719,3.8439 -0.20748,0.0698 -0.38621,0.13146 -0.39748,0.137 -0.0113,0.005 -0.10383,0.15747 -0.20539,0.33759 -0.10153,0.18013 -0.26077,0.42096 -0.35386,0.53495 -0.0931,0.11398 -0.1717,0.21491 -0.17466,0.22418 -0.009,0.0277 3.56353,-1.84586 4.42467,-2.32048 2.12508,-1.1712 3.72548,-2.27887 4.94472,-3.42329 0.22632,-0.21243 0.41733,-0.37494 0.42447,-0.36112 0.0187,0.0364 -0.7992,0.82231 -1.35231,1.29969 -1.37018,1.1826 -2.62248,2.00676 -5.90294,3.88471 -2.14392,1.22732 -2.82332,1.6301 -3.67569,2.17912 -0.31388,0.20217 -0.56482,0.37776 -0.55795,0.39017 0.0163,0.0295 1.18008,-0.27754 1.54365,-0.40728 0.19814,-0.0707 0.3326,-0.0847 0.44994,-0.0472 0.22314,0.0713 0.89512,-0.049 1.57251,-0.28135 0.68372,-0.23463 2.69036,-1.26707 3.63844,-1.8719 1.52984,-0.97598 3.16946,-2.21127 3.7315,-2.81163 0.15717,-0.16788 0.40575,-0.47827 0.55267,-0.68981 0.23956,-0.34488 0.29216,-0.46195 0.51005,-1.1347 0.23218,-0.71655 0.24124,-0.76461 0.2017,-1.0706 -0.0228,-0.17619 -0.0508,-0.3233 -0.0621,-0.32691 z m -0.52693,3.52398 c -0.0189,-3.7e-4 -0.0419,0.0157 -0.0767,0.0485 -0.12315,0.11581 -0.85211,0.50211 -1.13071,0.59926 -0.13135,0.0458 -0.33227,0.1619 -0.44655,0.25789 -0.34266,0.28781 -1.84593,1.34129 -2.54951,1.78674 -2.00363,1.26854 -3.73796,2.06526 -4.83597,2.22128 l -0.37829,0.0534 -0.11925,0.28231 c -0.0657,0.15525 -0.20137,0.37535 -0.30102,0.48893 -0.16046,0.18289 -0.16835,0.20107 -0.0703,0.16072 0.0609,-0.025 0.50251,-0.21831 0.98129,-0.42957 3.84875,-1.69828 6.31294,-3.04791 7.9878,-4.37488 0.29764,-0.23581 0.43405,-0.30593 0.25595,-0.13171 -0.175,0.17118 -0.90955,0.73826 -1.52868,1.1804 -1.51162,1.07952 -3.29623,2.08665 -6.44433,3.63668 -1.21765,0.59953 -2.45873,1.21819 -2.75786,1.37492 -0.29914,0.15673 -0.53311,0.28789 -0.52019,0.29141 0.0509,0.0137 1.63494,-0.27523 2.0971,-0.38261 3.65554,-0.84928 7.51799,-3.16508 9.29492,-5.57296 0.29245,-0.39629 0.36616,-0.53322 0.49062,-0.91077 0.10133,-0.30716 0.13315,-0.47006 0.10315,-0.52771 -0.0179,-0.0344 -0.0325,-0.0517 -0.0514,-0.0523 z m -12.06552,-2.62117 c -0.0727,-0.0528 -1.27789,0.57549 -1.88855,0.98453 -0.59425,0.39804 -1.41629,1.03293 -1.95636,1.51082 l -0.37688,0.33363 -0.2072,0.589 c -0.1736,0.494 -0.19204,0.57851 -0.1159,0.52364 0.05,-0.0359 0.8091,-0.65288 1.68706,-1.371 0.87797,-0.71811 1.62531,-1.32028 1.66097,-1.33827 0.0763,-0.0385 -0.25975,0.2884 -1.88956,1.83926 -0.66435,0.63217 -1.20395,1.14915 -1.19892,1.14824 0.005,-6.1e-4 0.18835,-0.037 0.4076,-0.081 0.21924,-0.0439 0.51231,-0.0714 0.65127,-0.0611 0.21384,0.0159 0.29956,-0.0125 0.55715,-0.18473 0.67105,-0.4487 1.42134,-1.21691 1.84872,-1.89306 0.48745,-0.77116 0.95232,-1.90436 0.82054,-2.00004 z m 1.47307,1.95211 c -0.12773,-0.0408 -0.40126,0.11026 -0.85009,0.46989 -0.59815,0.47929 -1.37767,0.96966 -2.48939,1.56603 -0.86573,0.46442 -0.9017,0.49033 -1.00377,0.71513 -0.0889,0.19588 -0.63637,1.03056 -0.86866,1.32454 -0.0371,0.0469 0.17262,-0.0664 0.46607,-0.25166 1.4164,-0.89423 2.57484,-1.70802 3.28445,-2.30744 0.24974,-0.21096 0.49372,-0.41574 0.54222,-0.45518 0.19182,-0.15593 -0.0366,0.0986 -0.37505,0.41766 -0.81433,0.76806 -1.89339,1.62393 -3.54289,2.80998 -0.3323,0.23894 -0.59831,0.436 -0.59123,0.43821 0.007,0.003 0.16878,-0.0331 0.35953,-0.0784 0.6029,-0.14325 0.8897,-0.179 1.03192,-0.12913 0.11263,0.0398 0.22829,-0.002 0.62943,-0.22422 1.08036,-0.59942 2.45433,-1.90002 3.10965,-2.94357 0.37014,-0.58944 0.52241,-1.28005 0.29781,-1.35185 z m -0.94733,0.21421 c -0.004,-0.0161 -0.32159,0.18254 -0.73888,0.47284 -0.34858,0.2425 -0.62303,0.444 -0.60976,0.44825 0.0258,0.009 0.76497,-0.48083 1.14026,-0.75462 0.14752,-0.10761 0.2103,-0.15915 0.20838,-0.16647 z m 10.41879,3.85479 -0.33254,0.23467 c -0.31893,0.22513 -0.98347,0.51364 -1.49361,0.64853 -0.13262,0.035 -0.49528,0.23367 -0.80605,0.44125 -0.7011,0.46831 -2.09837,1.21539 -2.95351,1.57905 -0.53396,0.22706 -1.44822,0.56104 -2.18173,0.79726 l -0.14798,0.0479 0.1394,-0.019 c 0.28343,-0.0383 1.64758,-0.3893 2.22027,-0.5711 1.49271,-0.47383 3.19627,-1.26747 4.1371,-1.92765 0.5694,-0.39955 0.64741,-0.44674 0.48453,-0.29205 -0.0734,0.0697 -0.36104,0.28872 -0.63933,0.48673 -1.84613,1.31344 -4.03251,2.22292 -7.02801,2.92331 -0.4786,0.1119 -0.65735,0.17697 -0.68,0.24782 -0.0387,0.12102 -0.21975,0.30538 -0.52435,0.53391 -0.13041,0.0978 -0.20945,0.18563 -0.17563,0.19454 0.0338,0.009 0.29364,0.0223 0.57776,0.0292 2.64117,0.0642 5.1103,-0.7968 7.27475,-2.53672 1.03117,-0.82892 1.66,-1.58911 1.95639,-2.36554 z m -15.30203,-4.0485 c -0.12346,-0.0177 -0.38846,0.13495 -0.78801,0.45419 -0.48709,0.38918 -0.74603,0.68365 -1.13598,1.2919 -0.28934,0.45135 -0.7238,1.2714 -0.80211,1.51403 -0.0361,0.11176 0.12434,0.25794 0.18404,0.16771 0.0188,-0.0284 0.12552,-0.25097 0.23692,-0.49442 0.28231,-0.61669 0.69328,-1.24668 1.18188,-1.81184 0.46354,-0.53617 0.66666,-0.70423 0.31689,-0.26218 -0.46689,0.59007 -1.17362,1.94246 -1.29558,2.47962 l -0.0438,0.19301 0.33807,-0.26422 c 0.18598,-0.14529 0.48455,-0.35227 0.66343,-0.46011 0.38104,-0.22973 0.36804,-0.20462 0.91462,-1.762 0.30259,-0.86223 0.33403,-0.97952 0.27402,-1.02759 -0.0118,-0.009 -0.0268,-0.0155 -0.0445,-0.018 z m 7.0958,2.3646 c -0.0414,-0.0332 -0.17865,0.0319 -0.65253,0.26997 -0.36547,0.18361 -1.22935,0.59709 -1.91969,0.91882 -1.6357,0.76233 -2.55176,1.25758 -2.65275,1.43461 -0.10329,0.18106 -0.60965,0.73455 -0.75446,0.82447 -0.0631,0.0392 0.0519,8.6e-4 0.25544,-0.0843 0.54501,-0.22878 3.43304,-1.75166 4.04022,-2.13042 0.535,-0.33372 0.7258,-0.42116 0.37739,-0.17308 -1.01528,0.72296 -2.92355,1.84767 -5.02342,2.96068 -0.47536,0.25195 -0.85489,0.46015 -0.84319,0.46263 0.0503,0.0111 1.0047,-0.30116 1.3882,-0.45435 0.23052,-0.0921 0.49301,-0.18686 0.58334,-0.21059 0.21598,-0.0567 0.38936,0.0514 0.42564,0.26547 0.0367,0.21662 0.0876,0.20452 0.82391,-0.19629 1.04245,-0.56747 2.40399,-1.5299 2.95184,-2.0868 0.48833,-0.49638 1.03436,-1.42783 1.01861,-1.73755 -0.002,-0.0302 -0.005,-0.0522 -0.0186,-0.0633 z m -5.87826,0.0228 c -0.17924,-0.0347 -0.69018,0.0149 -1.02905,0.1079 -0.65106,0.17869 -1.65215,0.78003 -2.34239,1.407 -0.15983,0.14516 -0.2351,0.2645 -0.3367,0.53325 -0.11194,0.29611 -0.27152,0.58048 -0.62972,1.12155 -0.13557,0.2048 1.65306,-1.04418 2.77468,-1.93741 0.40476,-0.32234 0.73067,-0.5695 0.72419,-0.54924 -0.0544,0.17016 -2.45971,2.18311 -3.77474,3.159 -0.1316,0.0977 -0.2308,0.18048 -0.22043,0.1838 0.0104,0.003 0.4198,-0.20506 0.90977,-0.46287 0.58384,-0.30721 0.96839,-0.47605 1.11575,-0.49027 0.62567,-0.0604 1.57526,-0.92254 2.48168,-2.25274 0.35483,-0.52072 0.45861,-0.73825 0.38181,-0.79983 -0.0106,-0.009 -0.0294,-0.015 -0.0548,-0.0201 z m 12.70849,4.91754 -0.33123,0.15916 c -0.18216,0.0874 -0.52494,0.20111 -0.76173,0.25265 -0.32631,0.0711 -0.62242,0.19765 -1.22307,0.52312 -0.43588,0.23618 -1.00736,0.51673 -1.27014,0.62347 -1.0078,0.40932 -2.46676,0.75061 -3.34535,0.78258 -0.18647,0.007 -0.33301,0.0239 -0.32575,0.0381 0.0129,0.0252 0.60544,0.0174 1.23444,-0.0161 0.53112,-0.0284 1.65003,-0.22791 2.2729,-0.4053 0.8556,-0.24368 1.48003,-0.49844 2.27427,-0.92773 0.46832,-0.2531 0.62183,-0.31911 0.45987,-0.19757 -0.38652,0.29008 -1.52068,0.8907 -2.13537,1.13056 -1.88522,0.73564 -4.03653,1.00532 -6.07699,0.7619 -0.54276,-0.0648 -0.56218,-0.0628 -1.01858,0.11384 -0.25588,0.0991 -0.69903,0.2455 -0.98483,0.32544 l -0.51953,0.14557 0.55269,0.16884 c 3.96821,1.21378 7.4467,0.55352 10.09982,-1.91699 0.51583,-0.48032 0.91799,-1.00143 1.02216,-1.32437 z m -7.22047,-1.75835 c -0.0266,-0.009 -0.16738,0.0269 -0.31298,0.0786 -0.36423,0.12928 -1.10673,0.32602 -2.0653,0.54728 -0.59188,0.13662 -0.94269,0.25374 -1.31523,0.43921 -0.27947,0.13912 -0.57379,0.27811 -0.65382,0.30867 -0.08,0.0306 -0.14418,0.0805 -0.14248,0.11126 0.002,0.0307 0.80682,-0.16468 1.789,-0.43447 0.98217,-0.2698 1.86148,-0.50249 1.95422,-0.51694 l 0.16877,-0.0263 -0.1721,0.0663 c -0.0947,0.0364 -1.073,0.39144 -2.17377,0.78873 -1.9802,0.71466 -2.00457,0.725 -2.29477,1.00202 -0.16132,0.15398 -0.38488,0.34087 -0.49684,0.41524 -0.11197,0.0744 -0.18605,0.14061 -0.16464,0.14688 0.0814,0.0241 1.17233,-0.0979 1.54685,-0.17253 1.52181,-0.3033 2.98535,-1.03356 3.83657,-1.91451 0.31661,-0.32765 0.59977,-0.80645 0.49652,-0.83945 z m -5.05541,-0.81466 c -0.0282,-0.009 -0.25793,0.0284 -0.51068,0.0832 -0.96646,0.20985 -1.64614,0.42419 -2.04162,0.64352 -0.37354,0.20715 -0.40978,0.2413 -0.4779,0.44771 -0.0406,0.12288 -0.13756,0.30799 -0.21566,0.41156 -0.13531,0.17941 -0.092,0.1628 0.92273,-0.35245 0.58578,-0.29745 1.12147,-0.57601 1.19017,-0.61904 0.0687,-0.043 0.2107,-0.10537 0.31546,-0.13844 l 0.19035,-0.0601 -0.23243,0.14282 c -0.12792,0.0786 -0.90467,0.55086 -1.72611,1.04948 -0.82144,0.49863 -1.51903,0.92837 -1.55021,0.95511 -0.0312,0.0268 -0.0496,0.0493 -0.041,0.0508 0.0718,0.0102 0.59177,-0.0928 0.68737,-0.13626 0.0666,-0.0302 0.17849,-0.0609 0.24897,-0.0681 0.14782,-0.0151 1.15771,-0.59003 1.93668,-1.10246 0.65118,-0.42839 1.47366,-1.25309 1.3039,-1.30735 z m -4.40974,-1.03563 c -0.0729,-0.0233 -0.38451,0.24746 -0.6246,0.54261 -0.21523,0.26462 -1.16636,1.81754 -1.14205,1.86469 0.0256,0.0497 0.69346,-0.71865 0.92493,-1.06404 0.25332,-0.37798 0.38627,-0.51148 0.24675,-0.24776 -0.36466,0.68921 -0.61741,1.10594 -0.83119,1.37042 -0.13761,0.17026 -0.24306,0.31185 -0.23453,0.31459 0.0479,0.0154 0.32449,-0.21923 0.60805,-0.5153 0.66087,-0.69002 1.23751,-1.75254 1.1406,-2.10181 -0.0226,-0.0817 -0.0623,-0.15519 -0.088,-0.1634 z m 4.75755,2.74902 c -0.0358,-0.0115 -0.22765,0.0481 -0.42601,0.13243 -0.48992,0.20819 -1.25913,0.45101 -2.23197,0.7046 -0.71325,0.18592 -0.83252,0.2336 -0.97921,0.39145 -0.0919,0.0988 -0.38514,0.30075 -0.65158,0.44858 -0.26645,0.14783 -0.46412,0.27543 -0.43937,0.28334 0.0248,0.008 0.21232,0.0108 0.41703,0.007 1.23442,-0.0244 2.42082,-0.39097 3.29629,-1.01864 0.19358,-0.13881 0.36054,-0.24986 0.37089,-0.24655 0.0454,0.0145 -0.25006,0.26473 -0.63022,0.53365 -0.91758,0.64908 -1.7648,0.92881 -3.28779,1.08589 -0.29044,0.03 0.50762,0.14012 0.99094,0.13681 1.1844,-0.008 2.44562,-0.61006 3.21692,-1.53526 0.34812,-0.41757 0.52144,-0.86963 0.35406,-0.92313 z m -3.65084,-0.67669 c -0.0662,-0.0148 -0.31219,0.10173 -1.06845,0.47996 -0.61124,0.30569 -1.22122,0.59941 -1.35579,0.65281 l -0.24489,0.0971 0.30905,-0.047 c 0.4169,-0.0633 0.7723,-0.173 1.18132,-0.365 l 0.34171,-0.16035 -0.24195,0.18279 c -0.31115,0.23506 -0.81287,0.46537 -1.25082,0.57422 -0.19013,0.0472 -0.34811,0.0937 -0.35116,0.10323 -0.007,0.0226 -0.0292,0.0221 0.35495,0.004 0.63276,-0.0294 1.22653,-0.26515 1.73205,-0.6877 0.28519,-0.23839 0.58149,-0.61569 0.61262,-0.7805 0.005,-0.0294 0.003,-0.0489 -0.0187,-0.0539 z m 7.43087,2.73184 c -0.0422,-0.0179 -0.22337,-0.0102 -0.43879,0.0205 -0.43361,0.0616 -1.67548,0.0892 -2.51779,0.0559 -0.22654,-0.009 -0.49547,0.003 -0.59761,0.0258 -0.25395,0.0578 -1.27071,0.14424 -1.62818,0.13837 -0.16071,-0.003 -0.38391,0.0341 -0.49587,0.0817 l -0.20348,0.0869 0.77782,0.0387 c 1.40662,0.0697 2.69751,0.0314 3.63888,-0.10787 0.24556,-0.0363 0.30678,-0.0341 0.20069,0.008 -0.21658,0.0849 -1.85099,0.32701 -2.46682,0.36548 -0.28475,0.0178 -0.82049,0.0402 -1.19073,0.0497 -0.623,0.0161 -0.65695,0.0228 -0.45326,0.0892 0.44993,0.14696 0.38404,0.37949 -0.18981,0.66822 l -0.41447,0.2085 0.23258,0.0678 c 1.03139,0.30199 2.41363,0.10082 3.97988,-0.5791 0.76887,-0.33379 1.7787,-1.02034 1.77638,-1.20783 -4e-5,-0.003 -0.003,-0.007 -0.009,-0.009 z m 5.4737,2.55838 c -0.0161,-0.005 -0.18363,0.0111 -0.37211,0.0363 -0.18848,0.0251 -0.56652,0.0483 -0.84024,0.0515 -0.30961,0.003 -0.65817,0.0527 -0.92263,0.12984 -1.39862,0.40844 -3.11848,0.47632 -4.69079,0.18531 -1.39175,-0.25758 -1.39318,-0.25776 -0.74915,-0.0794 1.48364,0.41084 2.73039,0.56344 4.08641,0.50003 0.63149,-0.0295 1.60834,-0.17716 2.15761,-0.3261 0.22538,-0.0611 0.36752,-0.0843 0.31595,-0.0513 -0.17745,0.1134 -1.28052,0.40083 -1.9551,0.50948 -1.58196,0.25479 -3.07173,0.20405 -4.75834,-0.16227 -0.62873,-0.13655 -0.65279,-0.13747 -0.89608,-0.0337 -0.13752,0.0586 -0.47899,0.14929 -0.75874,0.20146 l -0.50887,0.0949 0.97149,0.3027 c 0.53432,0.16637 1.05035,0.31972 1.14655,0.34044 2.482,0.53337 4.02051,0.50767 5.59299,-0.0932 0.57401,-0.21933 1.60827,-0.82177 1.90867,-1.11175 0.19092,-0.18431 0.34831,-0.46989 0.27238,-0.49416 z m -13.09313,-3.53868 -0.41583,0.0516 c -0.22872,0.0283 -0.71921,0.0379 -1.09003,0.0212 -0.37082,-0.0167 -0.78241,-0.03 -0.91478,-0.0293 -0.23494,5.9e-4 -0.23688,0.002 -0.0822,0.0553 0.22025,0.0754 0.88876,0.1412 1.2155,0.11959 0.42776,-0.0283 0.34201,0.0246 -0.134,0.0827 -0.82808,0.10107 -1.3371,0.0481 -2.19559,-0.22815 -0.47568,-0.15331 -0.57299,-0.17192 -0.546,-0.1051 0.0595,0.14751 0.53773,0.56758 0.81347,0.71445 l 10e-5,-3.1e-4 c 0.29802,0.15885 0.32352,0.16732 0.6564,0.2136 0.55674,0.0776 1.20914,-0.0616 1.8816,-0.40194 0.27394,-0.1386 0.56859,-0.30645 0.65478,-0.3729 z m 2.10795,2.08204 c -0.37359,-0.11564 -1.78427,-0.42251 -1.96826,-0.41921 -0.55994,0.01 -1.41582,-0.21247 -1.9048,-0.49542 -0.0825,-0.0477 -0.0784,-0.0381 0.0151,0.0364 0.17959,0.14314 0.2556,0.28651 0.21668,0.40827 -0.0462,0.1444 -0.16211,0.21492 -0.46413,0.28227 l -0.25892,0.0574 0.44598,0.109 c 0.8594,0.20965 1.68633,0.28653 2.45749,0.22874 0.50733,-0.0381 0.34538,0.0226 -0.28073,0.10521 -0.86219,0.11369 -1.44964,0.0973 -2.58066,-0.0729 l -0.25472,-0.0384 0.23839,0.13945 c 0.22928,0.13396 0.70447,0.29841 0.97152,0.33626 0.86725,0.12303 2.37839,-0.10819 3.19511,-0.48898 0.1518,-0.0708 0.26965,-0.13908 0.26198,-0.15163 -0.004,-0.007 -0.0367,-0.0201 -0.09,-0.0366 z m -6.94933,-2.06711 c -0.0321,-0.0147 -0.0711,-0.0129 -0.1308,-0.008 -0.0982,0.009 -0.17659,0.0497 -0.19336,0.10217 -0.0536,0.16775 0.12604,1.0128 0.25743,1.21083 0.21174,0.31911 0.67224,0.45339 1.53005,0.44605 0.39103,-0.003 1.11847,-0.0835 1.38565,-0.15266 0.20509,-0.0531 0.22081,-0.0668 0.15502,-0.13724 -0.0471,-0.0502 -0.32931,-0.14772 -0.78985,-0.27234 -0.8066,-0.21834 -1.08606,-0.36216 -1.45858,-0.75015 -0.26308,-0.27401 -0.29178,-0.23324 -0.0513,0.0726 0.23308,0.29638 0.60744,0.52877 1.12319,0.69803 0.34461,0.11268 0.38982,0.13766 0.27437,0.15027 -0.0761,0.009 -0.40034,-0.0669 -0.72088,-0.16685 -0.54062,-0.16902 -0.60047,-0.19868 -0.82887,-0.41032 -0.14084,-0.1305 -0.30435,-0.35148 -0.38199,-0.51621 -0.0817,-0.17337 -0.11654,-0.2422 -0.17014,-0.26628 z m -0.97054,0.25829 c -0.0547,-0.0175 -0.69884,0.36808 -0.71714,0.42926 -0.0424,0.14251 0.0482,0.52743 0.16822,0.71388 0.0726,0.11282 0.23294,0.27818 0.35648,0.36756 0.30221,0.21871 1.2171,0.55466 1.44064,0.52894 l 0.16415,-0.0189 -0.16864,-0.2169 c -0.0929,-0.11928 -0.25296,-0.29219 -0.35572,-0.38428 -0.21572,-0.19329 -0.36767,-0.48384 -0.44486,-0.85087 -0.0646,-0.30718 -0.11165,-0.21548 -0.0708,0.13777 0.0328,0.28352 0.18059,0.61666 0.34962,0.78783 0.19077,0.19321 0.0678,0.16149 -0.14699,-0.0378 -0.27515,-0.25541 -0.46188,-0.65577 -0.5056,-1.08512 -0.0202,-0.19849 -0.0514,-0.36554 -0.0694,-0.37131 z m 10.0885,3.3502 c -0.12974,-0.0402 -0.2973,-0.09 -0.51203,-0.15326 -0.58189,-0.17129 -1.13408,-0.30433 -1.40075,-0.33755 -0.27296,-0.0339 -0.58121,-0.10869 -0.811,-0.19698 -0.35655,-0.13698 -0.51642,-0.14916 -0.36476,-0.0275 0.12416,0.0995 1.78392,0.66352 2.21475,0.75258 0.48836,0.10097 0.48896,0.15756 8.6e-4,0.0913 -0.74752,-0.10152 -1.53718,-0.28038 -2.2767,-0.51487 -0.76805,-0.2436 -0.77715,-0.24525 -1.21571,-0.20669 -0.24305,0.0215 -0.49077,0.0405 -0.55007,0.0422 -0.1169,0.003 -0.14003,-0.0184 0.53402,0.50157 0.25439,0.19627 0.40216,0.26689 0.97263,0.46638 0.73153,0.25584 1.04618,0.30886 1.77156,0.29831 0.88202,-0.0128 1.98986,-0.28577 2.06088,-0.50794 0.0167,-0.0523 -0.0347,-0.0869 -0.42393,-0.20755 z m -7.38795,-1.5801 -0.51115,-0.0173 -0.51113,-0.0173 0.17383,0.1527 c 0.37479,0.32911 0.84991,0.58895 1.52118,0.83178 0.48144,0.17414 0.64243,0.24931 0.59122,0.27568 -0.10593,0.0547 -1.77585,-0.48812 -2.0692,-0.67249 -0.22228,-0.13968 -0.24026,-0.14305 -0.41241,-0.0784 -0.0991,0.0372 -0.18554,0.0807 -0.19225,0.0967 -0.021,0.0498 0.4554,0.44668 0.70614,0.5882 0.27339,0.15428 0.86858,0.34487 1.24511,0.39925 0.88012,0.1265 1.97689,0.0133 1.80591,-0.18653 -0.10951,-0.12796 -0.64459,-0.39934 -1.02998,-0.52253 -0.4883,-0.15608 -0.7991,-0.33845 -1.12528,-0.65992 z m -3.71158,-1.09348 -0.0477,0.14906 c -0.0656,0.20524 -0.0473,0.42243 0.0528,0.62841 0.10973,0.22576 -0.0111,0.19564 -0.18598,-0.0464 -0.10747,-0.14872 -0.13529,-0.16552 -0.19045,-0.11399 -0.0914,0.0854 -0.0577,0.16672 0.13961,0.33833 0.22566,0.1961 0.47184,0.32155 0.57751,0.29413 0.0741,-0.0192 0.0813,-0.0418 0.0574,-0.17952 -0.015,-0.0866 -0.0842,-0.26874 -0.15357,-0.40475 -0.0694,-0.136 -0.15408,-0.34115 -0.18801,-0.45616 z m 16.9173,5.55579 -0.98335,-0.30744 c -0.89952,-0.28121 -1.0301,-0.31027 -1.53393,-0.33905 -1.18661,-0.0678 -2.91639,-0.45289 -4.31058,-0.95928 -0.5359,-0.19464 -0.82657,-0.27651 -1.06465,-0.29987 l -0.32749,-0.0319 0.18334,0.0954 c 0.80861,0.42134 1.66585,0.76328 2.91309,1.16226 1.49555,0.47838 2.04228,0.59073 3.23311,0.66281 0.37464,0.0226 0.6864,0.051 0.69279,0.063 0.027,0.0509 -1.41238,0.0165 -1.99735,-0.0477 -1.15418,-0.12679 -1.95075,-0.32014 -3.55227,-0.86163 -0.7953,-0.26891 -1.4797,-0.5172 -1.52104,-0.55172 -0.0671,-0.056 -0.0733,-0.0477 -0.0584,0.0785 0.009,0.0777 -0.0156,0.19361 -0.0553,0.25746 -0.0753,0.12133 -0.38428,0.22632 -0.53021,0.17999 -0.15241,-0.0483 -0.11873,0.0635 0.0517,0.1717 0.52917,0.33574 0.92684,0.57216 1.29049,0.76716 0.39785,0.21332 2.19007,0.85281 2.61271,0.93227 0.93857,0.17643 1.96188,0.19442 2.89442,0.0508 1.22516,-0.18857 1.88767,-0.47496 2.01416,-0.8707 z m -10.61462,-2.85565 c -0.0286,-0.006 -0.0356,0.006 -0.0167,0.0383 0.008,0.0135 0.31077,0.28233 0.67289,0.59747 0.3621,0.31515 0.64763,0.57834 0.63443,0.58516 -0.0132,0.007 -0.40115,-0.21484 -0.86219,-0.49268 l -0.83829,-0.50528 -0.29881,0.0323 c -0.16437,0.0177 -0.40501,0.0252 -0.53487,0.0171 -0.12986,-0.008 -0.24198,0.003 -0.24911,0.0256 -0.0191,0.0596 0.74247,0.58697 1.11517,0.77208 0.48812,0.24244 1.13533,0.47342 1.5742,0.56184 0.40796,0.0822 0.78954,0.0632 0.82279,-0.0408 0.0105,-0.033 -0.17014,-0.26186 -0.40174,-0.5085 -0.34898,-0.3717 -0.47435,-0.47201 -0.73116,-0.58545 -0.17042,-0.0753 -0.4331,-0.22161 -0.58378,-0.32547 -0.14765,-0.10176 -0.25513,-0.16187 -0.30271,-0.17174 z m -5.42651,-1.51482 0.12041,0.19234 c 0.0661,0.1058 0.26713,0.34154 0.44671,0.52386 0.17956,0.18234 0.29646,0.32297 0.26015,0.312 -0.13547,-0.0401 -0.60864,-0.36428 -0.80844,-0.55375 -0.17831,-0.16915 -0.22018,-0.18993 -0.30455,-0.15273 -0.0539,0.0237 -0.13955,0.0382 -0.1906,0.0324 -0.17852,-0.0208 -0.13855,0.0829 0.13796,0.35672 0.27852,0.27585 0.27925,0.27607 1.03644,0.536 0.54377,0.18668 0.77301,0.24714 0.81131,0.21435 0.0773,-0.0662 -0.0774,-0.49905 -0.28532,-0.79825 -0.17032,-0.24514 -0.19606,-0.26256 -0.54827,-0.3754 -0.20318,-0.0651 -0.43826,-0.15649 -0.52257,-0.20287 z m -1.59666,-0.32944 c -0.0479,-0.0172 -0.0849,-0.006 -0.099,0.0375 -0.0319,0.0997 0.12228,0.52632 0.26314,0.72793 0.069,0.0987 0.22243,0.28201 0.34088,0.40723 0.24904,0.26324 0.16895,0.26087 -0.18801,-0.005 -0.31129,-0.23213 -0.48875,-0.43699 -0.69268,-0.7997 -0.15649,-0.27841 -0.16468,-0.2848 -0.35514,-0.28304 -0.18746,0.002 -0.19573,0.009 -0.2193,0.18841 -0.0615,0.46788 0.1685,0.80503 0.74649,1.09432 0.44909,0.22479 0.93216,0.40211 1.23386,0.45274 0.31335,0.0526 0.33675,0.0462 0.33703,-0.0947 2.1e-4,-0.10663 -0.64631,-0.99985 -0.94861,-1.31051 -0.0904,-0.0928 -0.2055,-0.21965 -0.25606,-0.28199 -0.0564,-0.0696 -0.11478,-0.11537 -0.16258,-0.13282 z m 3.41372,1.52048 c -0.0309,-0.0161 -0.0264,0.0197 -0.004,0.1509 0.017,0.10049 0.009,0.20966 -0.0173,0.24285 -0.14494,0.1808 0.69173,0.91116 1.67429,1.46129 0.59594,0.33368 1.28454,0.53379 1.62296,0.47152 0.11576,-0.0212 0.12378,-0.0338 0.081,-0.12797 -0.0882,-0.19399 -1.6819,-1.64768 -1.80363,-1.64509 -0.0289,6.1e-4 0.23427,0.2969 0.58516,0.65874 0.35089,0.36186 0.62917,0.66262 0.61827,0.66835 -0.011,0.006 -0.45021,-0.32391 -0.97622,-0.73256 -0.70745,-0.54963 -1.04768,-0.78331 -1.30741,-0.89775 -0.19313,-0.085 -0.38642,-0.18337 -0.42957,-0.21847 -0.0187,-0.0153 -0.033,-0.0264 -0.0433,-0.0318 z m -4.65266,-1.15371 c -0.0175,0.003 -0.0548,0.0395 -0.12785,0.11236 -0.40348,0.40339 -0.70911,1.15019 -0.71496,1.74725 -0.004,0.4481 0.14065,0.90678 0.52704,1.66667 0.17389,0.34199 0.3331,0.62707 0.35359,0.63362 0.081,0.0259 0.12595,-0.29736 0.14001,-1.00198 0.0242,-1.2148 0.0634,-1.83109 0.12992,-2.04639 0.0345,-0.11206 0.0428,-0.22684 0.0186,-0.25515 -0.0324,-0.0378 -0.0944,0.1293 -0.23418,0.6296 -0.17991,0.64437 -0.23606,1.13204 -0.18858,1.63841 0.007,0.0699 -0.004,0.0891 -0.0313,0.0572 -0.0767,-0.0896 -0.17727,-0.97408 -0.16497,-1.45217 0.009,-0.3211 0.0572,-0.64261 0.15044,-0.9918 0.076,-0.28417 0.14412,-0.57485 0.1514,-0.64596 0.006,-0.0628 0.009,-0.0943 -0.009,-0.0916 z m 8.1392,2.95826 c -0.0984,-0.0308 -0.0975,-0.0208 0.0101,0.10917 0.17037,0.20578 0.19691,0.40361 0.0747,0.55782 -0.11852,0.1495 -0.096,0.19749 0.27634,0.58774 0.55878,0.58564 1.59511,1.31119 2.53475,1.77479 1.45663,0.71869 2.48012,0.87584 3.01481,0.46262 0.22861,-0.17667 0.20407,-0.2398 -0.14789,-0.38075 -0.21232,-0.085 -0.44727,-0.23282 -0.7003,-0.44029 -0.30876,-0.25319 -0.47067,-0.34766 -0.8551,-0.49956 -0.55528,-0.21944 -1.27954,-0.56697 -1.68537,-0.80863 -0.15787,-0.094 -0.29762,-0.16545 -0.31039,-0.15889 -0.0128,0.007 0.21576,0.18592 0.50789,0.39868 0.59329,0.4321 1.37934,0.90088 2.07503,1.23765 l 0.46264,0.22415 -0.59874,-0.21548 c -1.28773,-0.46321 -2.76593,-1.34736 -4.13281,-2.47206 -0.22941,-0.18876 -0.46604,-0.3584 -0.52561,-0.37696 z m -5.26467,-1.65706 0.007,0.12972 c 0.005,0.0922 -0.0243,0.15469 -0.10052,0.21659 -0.0979,0.0794 -0.10233,0.10444 -0.0506,0.28374 0.0725,0.25125 0.36063,0.6154 0.64802,0.81901 0.15483,0.10973 0.45539,0.23865 0.97006,0.41634 0.41004,0.1416 0.77001,0.25572 0.79999,0.25382 0.0301,-0.002 0.1214,0.003 0.2031,0.0102 0.14641,0.0133 0.14778,0.0117 0.0904,-0.11553 -0.10179,-0.2256 -0.58662,-0.96161 -0.72277,-1.09716 -0.0721,-0.0718 -0.19118,-0.22578 -0.26455,-0.34209 -0.0734,-0.11631 0.0275,0.11159 0.22446,0.50629 l 0.35837,0.71762 -0.58777,-0.73424 -0.58777,-0.73421 -0.49361,-0.16496 z m -3.47466,-1.05653 c -0.003,-0.029 -0.23694,0.13952 -0.40324,0.29781 l -0.16811,0.15979 0.10767,-0.25929 0.10739,-0.25939 -0.19366,0.20507 c -0.33512,0.35501 -0.41371,0.8563 -0.19178,1.22308 0.0451,0.0746 0.1142,0.18065 0.15346,0.23584 0.0648,0.0912 0.071,0.0913 0.0665,5e-5 -0.0157,-0.31539 0.10394,-0.81365 0.27764,-1.15618 0.0989,-0.19499 0.20289,-0.38472 0.23096,-0.42167 0.01,-0.0128 0.0137,-0.021 0.0131,-0.0252 z m 1.50582,1.01952 c -0.0482,0.0177 0.16189,0.6025 0.33389,0.92983 0.23097,0.43953 0.57723,0.79938 1.00054,1.03991 0.5253,0.29846 1.04304,0.4246 1.0936,0.26643 0.0305,-0.0953 -0.24922,-0.60902 -0.44856,-0.82402 -0.19511,-0.21045 -0.46421,-0.70131 -0.46605,-0.84985 -4.3e-4,-0.0381 -0.0427,-0.0739 -0.0936,-0.0795 -0.0772,-0.009 -0.0681,0.059 0.0539,0.40479 0.0804,0.22804 0.20358,0.52568 0.27361,0.66151 0.07,0.13584 0.12333,0.25869 0.11876,0.27299 -0.0185,0.0578 -0.46112,-0.55914 -0.70904,-0.98813 l -0.26422,-0.45738 -0.43603,-0.19217 c -0.23973,-0.10565 -0.44519,-0.18873 -0.45673,-0.18447 z m -0.32712,-0.0566 c -0.0513,-0.0234 -0.10889,0.66188 -0.11614,1.42296 -0.0102,1.07265 0.56489,2.39366 1.31806,3.02754 0.20819,0.17503 0.58818,0.36072 0.60849,0.29718 0.003,-0.0122 -0.0215,-0.11799 -0.0561,-0.23538 -0.0346,-0.11739 -0.0701,-0.35217 -0.079,-0.52173 -0.0177,-0.33598 0.0554,-1.15998 0.12159,-1.37067 0.0462,-0.1463 -0.0144,-0.22795 -0.26784,-0.36238 l -0.16746,-0.0891 -0.0238,0.30109 c -0.0208,0.26205 -0.0169,1.02911 0.007,1.31223 0.0167,0.20123 -0.0462,0.0651 -0.14441,-0.31314 -0.10292,-0.39631 -0.27099,-1.46948 -0.24427,-1.55999 0.008,-0.0268 -0.0543,-0.12373 -0.13847,-0.2154 -0.23586,-0.25694 -0.53057,-0.8059 -0.6647,-1.23801 -0.0667,-0.21505 -0.13094,-0.41349 -0.14235,-0.44091 -0.003,-0.008 -0.007,-0.0128 -0.0101,-0.0143 z m 5.18472,1.87664 c -0.007,0.0205 0.96049,1.60436 1.20956,1.98101 0.29061,0.43949 0.78651,0.93833 1.17194,1.1788 l -9e-5,3e-4 c 0.58191,0.36304 1.35723,0.56682 1.84241,0.4846 l 0.17707,-0.0298 -0.25466,-0.3272 c -0.14,-0.17999 -0.4066,-0.5575 -0.59249,-0.83873 -0.22202,-0.3359 -0.45895,-0.61864 -0.69061,-0.82448 -0.1976,-0.17555 -0.33628,-0.2726 -0.3152,-0.22038 0.0779,0.19303 0.69051,1.12342 0.93994,1.42737 0.1427,0.17389 0.25667,0.32497 0.25328,0.33555 -0.009,0.0294 -0.4486,-0.37919 -0.69678,-0.64812 -0.4683,-0.50747 -0.79597,-0.93914 -1.19621,-1.57612 l -0.18573,-0.29603 -0.49823,-0.15357 c -0.27399,-0.0844 -0.64741,-0.23218 -0.82957,-0.32857 -0.18215,-0.0964 -0.33277,-0.1705 -0.33463,-0.16468 z m 0.0903,0.72093 c -0.0311,0.0973 0.43454,1.28196 0.71673,1.8238 0.1819,0.34925 0.30559,0.60677 0.27506,0.57234 -0.47867,-0.53959 -1.13165,-1.56659 -1.37392,-2.16133 l -0.12689,-0.31178 -0.38453,-0.0933 c -0.21146,-0.0511 -0.39315,-0.0893 -0.40376,-0.085 -0.0367,0.0148 0.10921,0.83643 0.26008,1.46465 0.17175,0.71518 0.29394,0.92129 0.73174,1.23531 0.55486,0.39798 1.94519,0.7925 2.24602,0.63741 0.18092,-0.0933 0.0887,-0.30369 -0.34016,-0.77667 -0.39996,-0.44107 -0.81538,-1.0318 -1.30412,-1.85444 -0.15758,-0.26522 -0.2908,-0.46805 -0.29626,-0.45099 z m -2.2897,-0.63637 c -0.0185,0.01 -0.0148,0.0786 0.009,0.1533 0.11181,0.35938 -0.20692,0.61971 -0.60352,0.49295 -0.0899,-0.0288 -0.15549,-0.0225 -0.16791,0.0164 -0.0112,0.0351 0.0313,0.29529 0.0949,0.578 0.16539,0.73563 0.57545,1.5289 0.99179,1.91889 0.37014,0.34673 0.76692,0.53451 1.01847,0.48203 0.21469,-0.0448 0.2657,-0.22033 0.12021,-0.4147 -0.22383,-0.29897 -0.53659,-1.38955 -0.70588,-2.46252 -0.0678,-0.42947 -0.12967,-0.60707 -0.16891,-0.48428 -0.0648,0.20296 0.11215,1.61629 0.28089,2.24191 0.0595,0.22064 0.0964,0.40733 0.0819,0.41477 -0.0792,0.0408 -0.56675,-1.36275 -0.70198,-2.02088 -0.1394,-0.67838 -0.20917,-0.93607 -0.24839,-0.91587 z"
           style="fill:#ffffff;stroke:none;stroke-width:0.05107358;stroke-miterlimit:4;stroke-dasharray:none;stroke-opacity:1"
           id="path965"
           inkscape:connector-curvature="0" />
        <path
           inkscape:connector-curvature="0"
           id="path845"
           style="fill:#ffffff;stroke:none;stroke-width:0.05107358;stroke-miterlimit:4;stroke-dasharray:none;stroke-opacity:1"
           d="m 205.33503,143.88591 c -0.23395,0.0748 -0.33828,0.59445 -0.25082,1.24883 0.1062,0.79464 0.77976,2.67518 1.29678,3.6205 0.13586,0.24843 0.24142,0.4627 0.2346,0.47592 -0.0194,0.0376 -0.87276,-0.65452 -1.11826,-0.90704 -0.12136,-0.12485 -0.33337,-0.3664 -0.4708,-0.53669 -0.37921,-0.46989 -0.65699,-0.57972 -0.7802,-0.30837 -0.0806,0.17765 -0.0248,0.53421 0.18912,1.20763 0.43036,1.35621 1.03398,2.47369 2.01624,3.73477 0.12171,0.15625 -1.13115,-0.55364 -1.39328,-0.78948 -0.35493,-0.31929 -0.43456,-0.36213 -0.58364,-0.31447 -0.30314,0.0969 -0.34812,0.59535 -0.11953,1.31997 0.23775,0.75368 0.6339,1.43774 1.2468,2.15261 l 0.29727,0.34668 -0.22979,-0.0866 c -0.33801,-0.1274 -1.10612,-0.61477 -1.40986,-0.89434 -0.32879,-0.30263 -0.42325,-0.33242 -0.57065,-0.18107 -0.25591,0.26275 -0.20157,1.25246 0.10916,1.9875 0.21771,0.51494 0.61072,1.12448 0.98739,1.53076 0.36331,0.39187 0.34921,0.42168 -0.0596,0.12662 -0.31353,-0.22632 -0.45554,-0.24688 -0.58616,-0.0858 -0.2314,0.28536 0.0184,1.07849 0.58122,1.84478 0.38857,0.52906 1.24552,1.4125 1.83247,1.88912 0.31271,0.2539 0.35799,0.30538 0.23133,0.26377 -0.20213,-0.0664 -0.75904,-0.37134 -1.00054,-0.54795 -0.51306,-0.37519 -0.67385,0.075 -0.30282,0.84753 0.36649,0.76307 0.99113,1.49982 1.88867,2.22811 0.22345,0.18132 0.4363,0.35627 0.47302,0.38864 0.099,0.0871 -0.36842,-0.0783 -0.64508,-0.22834 -0.43015,-0.23324 -0.64109,-0.0353 -0.48454,0.45445 0.12312,0.38519 0.3263,0.68087 0.80572,1.17352 0.72267,0.7426 1.36983,1.22404 2.33839,1.73915 l 0.64758,0.34425 -0.27326,-0.0176 c -0.15025,-0.01 -0.38269,-0.0365 -0.51687,-0.0597 l -0.24399,-0.0423 -0.099,0.13793 c -0.0789,0.11008 -0.087,0.18539 -0.04,0.37365 0.084,0.33655 0.34756,0.58939 1.04724,1.00406 1.03853,0.61549 1.66651,0.85606 2.71848,1.04164 l 0.62534,0.11045 -0.54318,0.13842 c -0.75672,0.19287 -0.76511,0.19612 -0.8435,0.34819 -0.0994,0.19274 0.0161,0.5042 0.27204,0.73387 0.50701,0.45494 1.84416,0.77338 3.26587,0.77768 0.58395,0.002 1.59323,-0.10949 1.96212,-0.21612 0.17605,-0.0506 0.17517,-0.0489 -0.0596,0.12271 -0.13092,0.0959 -0.34515,0.2098 -0.47576,0.25345 -0.29873,0.0999 -0.3839,0.23186 -0.30607,0.47532 0.11261,0.35234 0.62934,0.60081 1.24668,0.59902 0.6691,-0.002 2.34051,-0.66308 3.30926,-1.30879 0.16492,-0.10993 0.28537,-0.17488 0.26772,-0.14456 -0.0769,0.13211 -0.5999,0.83293 -0.71596,0.95938 -0.22968,0.25024 -0.15363,0.42809 0.21934,0.51176 0.46322,0.10381 1.35348,-0.0585 1.80898,-0.33014 l 0.16509,-0.0984 -0.0238,0.17518 c -0.0706,0.51787 0.56631,0.61384 1.69116,0.25483 0.36658,-0.117 0.67379,-0.24477 0.83062,-0.34569 l 0.24866,-0.16033 0.002,0.17669 c 0.003,0.21193 0.14292,0.34883 0.43392,0.4233 0.15212,0.0391 0.25193,0.0236 0.5484,-0.0843 0.52701,-0.19179 0.97944,-0.63868 1.33034,-1.31353 0.21957,-0.42226 0.2976,-0.63801 0.47648,-1.31899 0.0218,-0.0831 0.0329,-0.0554 0.0508,0.12652 0.0484,0.49104 0.035,0.78791 -0.0523,1.15505 -0.10391,0.43719 -0.0956,0.49401 0.0846,0.5757 0.27711,0.12564 0.85304,-0.21923 1.29719,-0.77679 0.24651,-0.30947 0.55928,-0.86365 0.7064,-1.25135 l 0.0895,-0.23594 0.0357,0.20146 c 0.0832,0.46769 0.37562,0.46375 0.68416,-0.009 0.21969,-0.3369 0.6616,-1.30308 0.72648,-1.5883 0.024,-0.10553 0.11609,-0.26377 0.20477,-0.35166 0.22268,-0.22078 0.46009,-0.65454 0.50809,-0.92846 0.0584,-0.33283 -0.0825,-0.74461 -0.35474,-1.03734 -0.46797,-0.50323 -0.99239,-0.72526 -1.86111,-0.78858 -0.69302,-0.0505 -0.85908,-0.12909 -1.08846,-0.513 -0.46274,-0.77449 -1.2741,-1.21175 -2.7048,-1.45774 -0.27975,-0.0481 -0.58399,-0.12337 -0.67619,-0.16754 -0.31271,-0.14983 -0.7127,-0.67663 -1.26953,-1.67202 -0.35037,-0.6263 -0.73635,-1.19187 -1.01629,-1.48957 -0.1863,-0.19812 -0.2812,-0.35962 -0.46337,-0.7868 -0.50426,-1.18242 -1.20716,-2.17436 -1.97243,-2.78387 -0.25675,-0.20449 -0.9126,-0.56303 -0.98671,-0.53934 -0.0288,0.009 -0.25586,-0.21015 -0.50468,-0.48771 -0.9519,-1.06176 -2.43415,-2.40077 -3.70088,-3.34298 -1.19069,-0.88566 -2.12347,-1.4269 -4.06244,-2.35803 -1.4275,-0.68551 -2.48401,-1.38372 -3.60299,-2.38101 -1.17968,-1.05139 -2.42993,-2.59078 -2.9442,-3.62527 -0.0945,-0.1901 -0.20499,-0.41238 -0.24586,-0.49384 -0.0904,-0.18032 -0.23355,-0.26079 -0.37973,-0.21406 z m 0.0809,0.26883 c 0.0179,-0.0166 0.0386,0.0253 0.0925,0.13637 1.33424,2.7486 4.14691,5.37312 7.20595,6.72411 2.21272,0.97722 4.15064,2.32248 6.26865,4.35164 0.32515,0.31152 0.79651,0.79413 1.04757,1.07242 0.25105,0.2783 0.45023,0.51811 0.44255,0.53299 -0.008,0.0149 -0.20591,-0.13447 -0.44023,-0.33195 -0.84057,-0.70842 -2.02306,-1.6265 -2.86035,-2.22069 -1.58289,-1.12334 -2.31192,-1.54048 -5.15415,-2.94952 -0.69156,-0.34285 -1.21647,-0.64714 -1.64636,-0.95404 -1.48139,-1.05755 -2.82336,-2.46522 -3.88322,-4.07358 -0.18746,-0.28447 -0.34632,-0.50648 -0.35301,-0.4935 -0.0254,0.0491 0.4672,0.81313 0.96331,1.49412 0.88548,1.21553 1.73006,2.11497 2.78434,2.96508 0.76057,0.61329 1.32278,0.95823 2.8988,1.77908 1.85139,0.96429 2.93399,1.64891 4.43146,2.80271 l 0.41651,0.32096 -0.55342,-0.26383 c -0.46971,-0.22396 -0.57813,-0.25593 -0.71845,-0.21108 -0.23998,0.0767 -0.28026,0.27052 -0.1447,0.69463 0.0584,0.18287 0.10111,0.33408 0.0956,0.33584 -0.0524,0.0168 -5.4667,-2.94121 -5.86111,-3.2021 -1.57804,-1.04385 -2.90199,-2.40904 -3.71505,-3.83101 -0.42342,-0.74054 -0.64599,-1.29688 -1.05169,-2.62832 -0.34901,-1.1454 -0.38371,-1.29162 -0.36433,-1.54572 0.0117,-0.15438 0.0401,-0.34091 0.0628,-0.41421 0.0155,-0.0496 0.0252,-0.0805 0.036,-0.0904 z m -0.91036,3.48921 c 0.032,-0.0218 0.11621,0.0772 0.43369,0.45629 0.51653,0.61682 1.16149,1.1651 1.80164,1.53159 0.19941,0.11417 0.36054,0.27091 0.61983,0.60315 0.73657,0.94383 1.80908,1.90686 2.99796,2.69209 0.32523,0.21479 1.62329,0.94167 2.88452,1.6151 1.26123,0.67342 2.51467,1.34576 2.78556,1.49417 l 0.49247,0.26996 0.21857,0.39923 c 0.1202,0.21958 0.28195,0.49116 0.35919,0.60365 0.0772,0.11249 0.13704,0.21033 0.13302,0.2173 -0.004,0.007 -0.0941,-0.0473 -0.20021,-0.12052 -0.80309,-0.554 -2.58873,-1.5885 -4.40482,-2.55208 -1.71906,-0.91209 -2.70182,-1.55472 -4.03598,-2.63932 -0.99767,-0.81105 -1.9403,-1.71297 -2.74892,-2.62989 -0.19738,-0.2238 -0.36547,-0.39454 -0.37327,-0.37944 -0.0255,0.0496 0.85347,1.04815 1.56285,1.77581 1.55626,1.59638 3.2551,2.91737 5.07427,3.94584 0.85825,0.48522 2.02535,1.17065 2.77748,1.63106 0.22013,0.13475 0.34094,0.23254 0.27213,0.22009 -0.153,-0.0277 -0.35372,0.0332 -0.45558,0.13812 -0.11162,0.11512 -0.13305,0.29124 -0.0806,0.65752 l 0.0463,0.32423 -0.46252,-0.25378 c -1.09379,-0.59997 -5.27847,-3.41892 -6.48076,-4.36565 -0.77331,-0.60892 -1.66922,-1.72605 -2.22483,-2.77392 -0.52539,-0.99088 -1.07379,-2.50821 -1.01347,-2.80452 0.006,-0.0283 0.0108,-0.0489 0.0215,-0.056 z m 0.0272,3.94093 c 0.0243,-0.0161 0.15917,0.076 0.29982,0.20471 0.32175,0.29452 1.13412,0.78802 1.72816,1.04982 0.29156,0.12849 0.59829,0.31843 0.85348,0.52846 0.39173,0.32238 1.74357,1.28589 3.36347,2.39759 1.65969,1.13899 2.80611,1.8623 3.66922,2.31486 0.27349,0.1434 0.50656,0.28958 0.51789,0.32506 0.0188,0.0588 0.48166,0.71523 0.64514,0.91483 0.0376,0.0459 -0.25918,-0.12339 -0.65985,-0.3765 -0.40067,-0.25311 -1.40305,-0.86951 -2.22718,-1.36983 -3.54598,-2.15275 -4.97881,-3.10674 -6.52307,-4.343 -0.42884,-0.3433 -0.77514,-0.61072 -0.76988,-0.5943 0.0199,0.062 1.0376,0.93266 1.7506,1.49739 1.12706,0.89265 2.3099,1.72323 4.85564,3.40971 1.27641,0.8456 2.63543,1.75506 3.02021,2.02128 0.38478,0.26621 0.68927,0.48738 0.67669,0.4914 -0.0126,0.004 -0.46376,-0.21208 -1.00304,-0.48033 -1.02328,-0.50899 -1.15735,-0.54085 -1.26658,-0.30024 -0.0281,0.0618 -0.0422,0.19948 -0.031,0.30589 l 0.0205,0.1936 -0.42707,-0.16633 c -1.01099,-0.39408 -2.97515,-1.53105 -4.36428,-2.52624 -2.36852,-1.69681 -3.60141,-3.07601 -4.06181,-4.5436 -0.12264,-0.39156 -0.15813,-0.89384 -0.0671,-0.95424 z m -0.67428,2.60009 c 0.0113,-0.003 0.14974,0.10937 0.30748,0.25117 0.33306,0.29939 1.0247,0.70091 1.78948,1.03868 0.4117,0.18185 0.64565,0.32848 0.99781,0.62511 1.82859,1.54015 4.76548,3.35585 6.21719,3.8439 0.20748,0.0698 0.38621,0.13146 0.39748,0.137 0.0113,0.005 0.10383,0.15747 0.20539,0.33759 0.10153,0.18013 0.26077,0.42096 0.35386,0.53495 0.0931,0.11398 0.1717,0.21491 0.17466,0.22418 0.009,0.0277 -3.56353,-1.84586 -4.42467,-2.32048 -2.12508,-1.1712 -3.72548,-2.27887 -4.94472,-3.42329 -0.22632,-0.21243 -0.41733,-0.37494 -0.42447,-0.36112 -0.0187,0.0364 0.7992,0.82231 1.35231,1.29969 1.37018,1.1826 2.62248,2.00676 5.90294,3.88471 2.14392,1.22732 2.82332,1.6301 3.67569,2.17912 0.31388,0.20217 0.56482,0.37776 0.55795,0.39017 -0.0163,0.0295 -1.18008,-0.27754 -1.54365,-0.40728 -0.19814,-0.0707 -0.3326,-0.0847 -0.44994,-0.0472 -0.22314,0.0713 -0.89512,-0.049 -1.57251,-0.28135 -0.68372,-0.23463 -2.69036,-1.26707 -3.63844,-1.8719 -1.52984,-0.97598 -3.16946,-2.21127 -3.7315,-2.81163 -0.15717,-0.16788 -0.40575,-0.47827 -0.55267,-0.68981 -0.23956,-0.34488 -0.29216,-0.46195 -0.51005,-1.1347 -0.23218,-0.71655 -0.24124,-0.76461 -0.2017,-1.0706 0.0228,-0.17619 0.0508,-0.3233 0.0621,-0.32691 z m 0.52693,3.52398 c 0.0189,-3.7e-4 0.0419,0.0157 0.0767,0.0485 0.12315,0.11581 0.85211,0.50211 1.13071,0.59926 0.13135,0.0458 0.33227,0.1619 0.44655,0.25789 0.34266,0.28781 1.84593,1.34129 2.54951,1.78674 2.00363,1.26854 3.73796,2.06526 4.83597,2.22128 l 0.37829,0.0534 0.11925,0.28231 c 0.0657,0.15525 0.20137,0.37535 0.30102,0.48893 0.16046,0.18289 0.16835,0.20107 0.0703,0.16072 -0.0609,-0.025 -0.50251,-0.21831 -0.98129,-0.42957 -3.84875,-1.69828 -6.31294,-3.04791 -7.9878,-4.37488 -0.29764,-0.23581 -0.43405,-0.30593 -0.25595,-0.13171 0.175,0.17118 0.90955,0.73826 1.52868,1.1804 1.51162,1.07952 3.29623,2.08665 6.44433,3.63668 1.21765,0.59953 2.45873,1.21819 2.75786,1.37492 0.29914,0.15673 0.53311,0.28789 0.52019,0.29141 -0.0509,0.0137 -1.63494,-0.27523 -2.0971,-0.38261 -3.65554,-0.84928 -7.51799,-3.16508 -9.29492,-5.57296 -0.29245,-0.39629 -0.36616,-0.53322 -0.49062,-0.91077 -0.10133,-0.30716 -0.13315,-0.47006 -0.10315,-0.52771 0.0179,-0.0344 0.0325,-0.0517 0.0514,-0.0523 z m 12.06552,-2.62117 c 0.0727,-0.0528 1.27789,0.57549 1.88855,0.98453 0.59425,0.39804 1.41629,1.03293 1.95636,1.51082 l 0.37688,0.33363 0.2072,0.589 c 0.1736,0.494 0.19204,0.57851 0.1159,0.52364 -0.05,-0.0359 -0.8091,-0.65288 -1.68706,-1.371 -0.87797,-0.71811 -1.62531,-1.32028 -1.66097,-1.33827 -0.0763,-0.0385 0.25975,0.2884 1.88956,1.83926 0.66435,0.63217 1.20395,1.14915 1.19892,1.14824 -0.005,-6.1e-4 -0.18835,-0.037 -0.4076,-0.081 -0.21924,-0.0439 -0.51231,-0.0714 -0.65127,-0.0611 -0.21384,0.0159 -0.29956,-0.0125 -0.55715,-0.18473 -0.67105,-0.4487 -1.42134,-1.21691 -1.84872,-1.89306 -0.48745,-0.77116 -0.95232,-1.90436 -0.82054,-2.00004 z m -1.47307,1.95211 c 0.12773,-0.0408 0.40126,0.11026 0.85009,0.46989 0.59815,0.47929 1.37767,0.96966 2.48939,1.56603 0.86573,0.46442 0.9017,0.49033 1.00377,0.71513 0.0889,0.19588 0.63637,1.03056 0.86866,1.32454 0.0371,0.0469 -0.17262,-0.0664 -0.46607,-0.25166 -1.4164,-0.89423 -2.57484,-1.70802 -3.28445,-2.30744 -0.24974,-0.21096 -0.49372,-0.41574 -0.54222,-0.45518 -0.19182,-0.15593 0.0366,0.0986 0.37505,0.41766 0.81433,0.76806 1.89339,1.62393 3.54289,2.80998 0.3323,0.23894 0.59831,0.436 0.59123,0.43821 -0.007,0.003 -0.16878,-0.0331 -0.35953,-0.0784 -0.6029,-0.14325 -0.8897,-0.179 -1.03192,-0.12913 -0.11263,0.0398 -0.22829,-0.002 -0.62943,-0.22422 -1.08036,-0.59942 -2.45433,-1.90002 -3.10965,-2.94357 -0.37014,-0.58944 -0.52241,-1.28005 -0.29781,-1.35185 z m 0.94733,0.21421 c 0.004,-0.0161 0.32159,0.18254 0.73888,0.47284 0.34858,0.2425 0.62303,0.444 0.60976,0.44825 -0.0258,0.009 -0.76497,-0.48083 -1.14026,-0.75462 -0.14752,-0.10761 -0.2103,-0.15915 -0.20838,-0.16647 z m -10.41879,3.85479 0.33254,0.23467 c 0.31893,0.22513 0.98347,0.51364 1.49361,0.64853 0.13262,0.035 0.49528,0.23367 0.80605,0.44125 0.7011,0.46831 2.09837,1.21539 2.95351,1.57905 0.53396,0.22706 1.44822,0.56104 2.18173,0.79726 l 0.14798,0.0479 -0.1394,-0.019 c -0.28343,-0.0383 -1.64758,-0.3893 -2.22027,-0.5711 -1.49271,-0.47383 -3.19627,-1.26747 -4.1371,-1.92765 -0.5694,-0.39955 -0.64741,-0.44674 -0.48453,-0.29205 0.0734,0.0697 0.36104,0.28872 0.63933,0.48673 1.84613,1.31344 4.03251,2.22292 7.02801,2.92331 0.4786,0.1119 0.65735,0.17697 0.68,0.24782 0.0387,0.12102 0.21975,0.30538 0.52435,0.53391 0.13041,0.0978 0.20945,0.18563 0.17563,0.19454 -0.0338,0.009 -0.29364,0.0223 -0.57776,0.0292 -2.64117,0.0642 -5.1103,-0.7968 -7.27475,-2.53672 -1.03117,-0.82892 -1.66,-1.58911 -1.95639,-2.36554 z m 15.30203,-4.0485 c 0.12346,-0.0177 0.38846,0.13495 0.78801,0.45419 0.48709,0.38918 0.74603,0.68365 1.13598,1.2919 0.28934,0.45135 0.7238,1.2714 0.80211,1.51403 0.0361,0.11176 -0.12434,0.25794 -0.18404,0.16771 -0.0188,-0.0284 -0.12552,-0.25097 -0.23692,-0.49442 -0.28231,-0.61669 -0.69328,-1.24668 -1.18188,-1.81184 -0.46354,-0.53617 -0.66666,-0.70423 -0.31689,-0.26218 0.46689,0.59007 1.17362,1.94246 1.29558,2.47962 l 0.0438,0.19301 -0.33807,-0.26422 c -0.18598,-0.14529 -0.48455,-0.35227 -0.66343,-0.46011 -0.38104,-0.22973 -0.36804,-0.20462 -0.91462,-1.762 -0.30259,-0.86223 -0.33403,-0.97952 -0.27402,-1.02759 0.0118,-0.009 0.0268,-0.0155 0.0445,-0.018 z m -7.0958,2.3646 c 0.0414,-0.0332 0.17865,0.0319 0.65253,0.26997 0.36547,0.18361 1.22935,0.59709 1.91969,0.91882 1.6357,0.76233 2.55176,1.25758 2.65275,1.43461 0.10329,0.18106 0.60965,0.73455 0.75446,0.82447 0.0631,0.0392 -0.0519,8.6e-4 -0.25544,-0.0843 -0.54501,-0.22878 -3.43304,-1.75166 -4.04022,-2.13042 -0.535,-0.33372 -0.7258,-0.42116 -0.37739,-0.17308 1.01528,0.72296 2.92355,1.84767 5.02342,2.96068 0.47536,0.25195 0.85489,0.46015 0.84319,0.46263 -0.0503,0.0111 -1.0047,-0.30116 -1.3882,-0.45435 -0.23052,-0.0921 -0.49301,-0.18686 -0.58334,-0.21059 -0.21598,-0.0567 -0.38936,0.0514 -0.42564,0.26547 -0.0367,0.21662 -0.0876,0.20452 -0.82391,-0.19629 -1.04245,-0.56747 -2.40399,-1.5299 -2.95184,-2.0868 -0.48833,-0.49638 -1.03436,-1.42783 -1.01861,-1.73755 0.002,-0.0302 0.005,-0.0522 0.0186,-0.0633 z m 5.87826,0.0228 c 0.17924,-0.0347 0.69018,0.0149 1.02905,0.1079 0.65106,0.17869 1.65215,0.78003 2.34239,1.407 0.15983,0.14516 0.2351,0.2645 0.3367,0.53325 0.11194,0.29611 0.27152,0.58048 0.62972,1.12155 0.13557,0.2048 -1.65306,-1.04418 -2.77468,-1.93741 -0.40476,-0.32234 -0.73067,-0.5695 -0.72419,-0.54924 0.0544,0.17016 2.45971,2.18311 3.77474,3.159 0.1316,0.0977 0.2308,0.18048 0.22043,0.1838 -0.0104,0.003 -0.4198,-0.20506 -0.90977,-0.46287 -0.58384,-0.30721 -0.96839,-0.47605 -1.11575,-0.49027 -0.62567,-0.0604 -1.57526,-0.92254 -2.48168,-2.25274 -0.35483,-0.52072 -0.45861,-0.73825 -0.38181,-0.79983 0.0106,-0.009 0.0294,-0.015 0.0548,-0.0201 z m -12.70849,4.91754 0.33123,0.15916 c 0.18216,0.0874 0.52494,0.20111 0.76173,0.25265 0.32631,0.0711 0.62242,0.19765 1.22307,0.52312 0.43588,0.23618 1.00736,0.51673 1.27014,0.62347 1.0078,0.40932 2.46676,0.75061 3.34535,0.78258 0.18647,0.007 0.33301,0.0239 0.32575,0.0381 -0.0129,0.0252 -0.60544,0.0174 -1.23444,-0.0161 -0.53112,-0.0284 -1.65003,-0.22791 -2.2729,-0.4053 -0.8556,-0.24368 -1.48003,-0.49844 -2.27427,-0.92773 -0.46832,-0.2531 -0.62183,-0.31911 -0.45987,-0.19757 0.38652,0.29008 1.52068,0.8907 2.13537,1.13056 1.88522,0.73564 4.03653,1.00532 6.07699,0.7619 0.54276,-0.0648 0.56218,-0.0628 1.01858,0.11384 0.25588,0.0991 0.69903,0.2455 0.98483,0.32544 l 0.51953,0.14557 -0.55269,0.16884 c -3.96821,1.21378 -7.4467,0.55352 -10.09982,-1.91699 -0.51583,-0.48032 -0.91799,-1.00143 -1.02216,-1.32437 z m 7.22047,-1.75835 c 0.0266,-0.009 0.16738,0.0269 0.31298,0.0786 0.36423,0.12928 1.10673,0.32602 2.0653,0.54728 0.59188,0.13662 0.94269,0.25374 1.31523,0.43921 0.27947,0.13912 0.57379,0.27811 0.65382,0.30867 0.08,0.0306 0.14418,0.0805 0.14248,0.11126 -0.002,0.0307 -0.80682,-0.16468 -1.789,-0.43447 -0.98217,-0.2698 -1.86148,-0.50249 -1.95422,-0.51694 l -0.16877,-0.0263 0.1721,0.0663 c 0.0947,0.0364 1.073,0.39144 2.17377,0.78873 1.9802,0.71466 2.00457,0.725 2.29477,1.00202 0.16132,0.15398 0.38488,0.34087 0.49684,0.41524 0.11197,0.0744 0.18605,0.14061 0.16464,0.14688 -0.0814,0.0241 -1.17233,-0.0979 -1.54685,-0.17253 -1.52181,-0.3033 -2.98535,-1.03356 -3.83657,-1.91451 -0.31661,-0.32765 -0.59977,-0.80645 -0.49652,-0.83945 z m 5.05541,-0.81466 c 0.0282,-0.009 0.25793,0.0284 0.51068,0.0832 0.96646,0.20985 1.64614,0.42419 2.04162,0.64352 0.37354,0.20715 0.40978,0.2413 0.4779,0.44771 0.0406,0.12288 0.13756,0.30799 0.21566,0.41156 0.13531,0.17941 0.092,0.1628 -0.92273,-0.35245 -0.58578,-0.29745 -1.12147,-0.57601 -1.19017,-0.61904 -0.0687,-0.043 -0.2107,-0.10537 -0.31546,-0.13844 l -0.19035,-0.0601 0.23243,0.14282 c 0.12792,0.0786 0.90467,0.55086 1.72611,1.04948 0.82144,0.49863 1.51903,0.92837 1.55021,0.95511 0.0312,0.0268 0.0496,0.0493 0.041,0.0508 -0.0718,0.0102 -0.59177,-0.0928 -0.68737,-0.13626 -0.0666,-0.0302 -0.17849,-0.0609 -0.24897,-0.0681 -0.14782,-0.0151 -1.15771,-0.59003 -1.93668,-1.10246 -0.65118,-0.42839 -1.47366,-1.25309 -1.3039,-1.30735 z m 4.40974,-1.03563 c 0.0729,-0.0233 0.38451,0.24746 0.6246,0.54261 0.21523,0.26462 1.16636,1.81754 1.14205,1.86469 -0.0256,0.0497 -0.69346,-0.71865 -0.92493,-1.06404 -0.25332,-0.37798 -0.38627,-0.51148 -0.24675,-0.24776 0.36466,0.68921 0.61741,1.10594 0.83119,1.37042 0.13761,0.17026 0.24306,0.31185 0.23453,0.31459 -0.0479,0.0154 -0.32449,-0.21923 -0.60805,-0.5153 -0.66087,-0.69002 -1.23751,-1.75254 -1.1406,-2.10181 0.0226,-0.0817 0.0623,-0.15519 0.088,-0.1634 z m -4.75755,2.74902 c 0.0358,-0.0115 0.22765,0.0481 0.42601,0.13243 0.48992,0.20819 1.25913,0.45101 2.23197,0.7046 0.71325,0.18592 0.83252,0.2336 0.97921,0.39145 0.0919,0.0988 0.38514,0.30075 0.65158,0.44858 0.26645,0.14783 0.46412,0.27543 0.43937,0.28334 -0.0248,0.008 -0.21232,0.0108 -0.41703,0.007 -1.23442,-0.0244 -2.42082,-0.39097 -3.29629,-1.01864 -0.19358,-0.13881 -0.36054,-0.24986 -0.37089,-0.24655 -0.0454,0.0145 0.25006,0.26473 0.63022,0.53365 0.91758,0.64908 1.7648,0.92881 3.28779,1.08589 0.29044,0.03 -0.50762,0.14012 -0.99094,0.13681 -1.1844,-0.008 -2.44562,-0.61006 -3.21692,-1.53526 -0.34812,-0.41757 -0.52144,-0.86963 -0.35406,-0.92313 z m 3.65084,-0.67669 c 0.0662,-0.0148 0.31219,0.10173 1.06845,0.47996 0.61124,0.30569 1.22122,0.59941 1.35579,0.65281 l 0.24489,0.0971 -0.30905,-0.047 c -0.4169,-0.0633 -0.7723,-0.173 -1.18132,-0.365 l -0.34171,-0.16035 0.24195,0.18279 c 0.31115,0.23506 0.81287,0.46537 1.25082,0.57422 0.19013,0.0472 0.34811,0.0937 0.35116,0.10323 0.007,0.0226 0.0292,0.0221 -0.35495,0.004 -0.63276,-0.0294 -1.22653,-0.26515 -1.73205,-0.6877 -0.28519,-0.23839 -0.58149,-0.61569 -0.61262,-0.7805 -0.005,-0.0294 -0.003,-0.0489 0.0187,-0.0539 z m -7.43087,2.73184 c 0.0422,-0.0179 0.22337,-0.0102 0.43879,0.0205 0.43361,0.0616 1.67548,0.0892 2.51779,0.0559 0.22654,-0.009 0.49547,0.003 0.59761,0.0258 0.25395,0.0578 1.27071,0.14424 1.62818,0.13837 0.16071,-0.003 0.38391,0.0341 0.49587,0.0817 l 0.20348,0.0869 -0.77782,0.0387 c -1.40662,0.0697 -2.69751,0.0314 -3.63888,-0.10787 -0.24556,-0.0363 -0.30678,-0.0341 -0.20069,0.008 0.21658,0.0849 1.85099,0.32701 2.46682,0.36548 0.28475,0.0178 0.82049,0.0402 1.19073,0.0497 0.623,0.0161 0.65695,0.0228 0.45326,0.0892 -0.44993,0.14696 -0.38404,0.37949 0.18981,0.66822 l 0.41447,0.2085 -0.23258,0.0678 c -1.03139,0.30199 -2.41363,0.10082 -3.97988,-0.5791 -0.76887,-0.33379 -1.7787,-1.02034 -1.77638,-1.20783 4e-5,-0.003 0.003,-0.007 0.009,-0.009 z m -5.4737,2.55838 c 0.0161,-0.005 0.18363,0.0111 0.37211,0.0363 0.18848,0.0251 0.56652,0.0483 0.84024,0.0515 0.30961,0.003 0.65817,0.0527 0.92263,0.12984 1.39862,0.40844 3.11848,0.47632 4.69079,0.18531 1.39175,-0.25758 1.39318,-0.25776 0.74915,-0.0794 -1.48364,0.41084 -2.73039,0.56344 -4.08641,0.50003 -0.63149,-0.0295 -1.60834,-0.17716 -2.15761,-0.3261 -0.22538,-0.0611 -0.36752,-0.0843 -0.31595,-0.0513 0.17745,0.1134 1.28052,0.40083 1.9551,0.50948 1.58196,0.25479 3.07173,0.20405 4.75834,-0.16227 0.62873,-0.13655 0.65279,-0.13747 0.89608,-0.0337 0.13752,0.0586 0.47899,0.14929 0.75874,0.20146 l 0.50887,0.0949 -0.97149,0.3027 c -0.53432,0.16637 -1.05035,0.31972 -1.14655,0.34044 -2.482,0.53337 -4.02051,0.50767 -5.59299,-0.0932 -0.57401,-0.21933 -1.60827,-0.82177 -1.90867,-1.11175 -0.19092,-0.18431 -0.34831,-0.46989 -0.27238,-0.49416 z m 13.09313,-3.53868 0.41583,0.0516 c 0.22872,0.0283 0.71921,0.0379 1.09003,0.0212 0.37082,-0.0167 0.78241,-0.03 0.91478,-0.0293 0.23494,5.9e-4 0.23688,0.002 0.0822,0.0553 -0.22025,0.0754 -0.88876,0.1412 -1.2155,0.11959 -0.42776,-0.0283 -0.34201,0.0246 0.134,0.0827 0.82808,0.10107 1.3371,0.0481 2.19559,-0.22815 0.47568,-0.15331 0.57299,-0.17192 0.546,-0.1051 -0.0595,0.14751 -0.53773,0.56758 -0.81347,0.71445 l -1e-4,-3.1e-4 c -0.29802,0.15885 -0.32352,0.16732 -0.6564,0.2136 -0.55674,0.0776 -1.20914,-0.0616 -1.8816,-0.40194 -0.27394,-0.1386 -0.56859,-0.30645 -0.65478,-0.3729 z m -2.10795,2.08204 c 0.37359,-0.11564 1.78427,-0.42251 1.96826,-0.41921 0.55994,0.01 1.41582,-0.21247 1.9048,-0.49542 0.0825,-0.0477 0.0784,-0.0381 -0.0151,0.0364 -0.17959,0.14314 -0.2556,0.28651 -0.21668,0.40827 0.0462,0.1444 0.16211,0.21492 0.46413,0.28227 l 0.25892,0.0574 -0.44598,0.109 c -0.8594,0.20965 -1.68633,0.28653 -2.45749,0.22874 -0.50733,-0.0381 -0.34538,0.0226 0.28073,0.10521 0.86219,0.11369 1.44964,0.0973 2.58066,-0.0729 l 0.25472,-0.0384 -0.23839,0.13945 c -0.22928,0.13396 -0.70447,0.29841 -0.97152,0.33626 -0.86725,0.12303 -2.37839,-0.10819 -3.19511,-0.48898 -0.1518,-0.0708 -0.26965,-0.13908 -0.26198,-0.15163 0.004,-0.007 0.0367,-0.0201 0.09,-0.0366 z m 6.94933,-2.06711 c 0.0321,-0.0147 0.0711,-0.0129 0.1308,-0.008 0.0982,0.009 0.17659,0.0497 0.19336,0.10217 0.0536,0.16775 -0.12604,1.0128 -0.25743,1.21083 -0.21174,0.31911 -0.67224,0.45339 -1.53005,0.44605 -0.39103,-0.003 -1.11847,-0.0835 -1.38565,-0.15266 -0.20509,-0.0531 -0.22081,-0.0668 -0.15502,-0.13724 0.0471,-0.0502 0.32931,-0.14772 0.78985,-0.27234 0.8066,-0.21834 1.08606,-0.36216 1.45858,-0.75015 0.26308,-0.27401 0.29178,-0.23324 0.0513,0.0726 -0.23308,0.29638 -0.60744,0.52877 -1.12319,0.69803 -0.34461,0.11268 -0.38982,0.13766 -0.27437,0.15027 0.0761,0.009 0.40034,-0.0669 0.72088,-0.16685 0.54062,-0.16902 0.60047,-0.19868 0.82887,-0.41032 0.14084,-0.1305 0.30435,-0.35148 0.38199,-0.51621 0.0817,-0.17337 0.11654,-0.2422 0.17014,-0.26628 z m 0.97054,0.25829 c 0.0547,-0.0175 0.69884,0.36808 0.71714,0.42926 0.0424,0.14251 -0.0482,0.52743 -0.16822,0.71388 -0.0726,0.11282 -0.23294,0.27818 -0.35648,0.36756 -0.30221,0.21871 -1.2171,0.55466 -1.44064,0.52894 l -0.16415,-0.0189 0.16864,-0.2169 c 0.0929,-0.11928 0.25296,-0.29219 0.35572,-0.38428 0.21572,-0.19329 0.36767,-0.48384 0.44486,-0.85087 0.0646,-0.30718 0.11165,-0.21548 0.0708,0.13777 -0.0328,0.28352 -0.18059,0.61666 -0.34962,0.78783 -0.19077,0.19321 -0.0678,0.16149 0.14699,-0.0378 0.27515,-0.25541 0.46188,-0.65577 0.5056,-1.08512 0.0202,-0.19849 0.0514,-0.36554 0.0694,-0.37131 z m -10.0885,3.3502 c 0.12974,-0.0402 0.2973,-0.09 0.51203,-0.15326 0.58189,-0.17129 1.13408,-0.30433 1.40075,-0.33755 0.27296,-0.0339 0.58121,-0.10869 0.811,-0.19698 0.35655,-0.13698 0.51642,-0.14916 0.36476,-0.0275 -0.12416,0.0995 -1.78392,0.66352 -2.21475,0.75258 -0.48836,0.10097 -0.48896,0.15756 -8.6e-4,0.0913 0.74752,-0.10152 1.53718,-0.28038 2.2767,-0.51487 0.76805,-0.2436 0.77715,-0.24525 1.21571,-0.20669 0.24305,0.0215 0.49077,0.0405 0.55007,0.0422 0.1169,0.003 0.14003,-0.0184 -0.53402,0.50157 -0.25439,0.19627 -0.40216,0.26689 -0.97263,0.46638 -0.73153,0.25584 -1.04618,0.30886 -1.77156,0.29831 -0.88202,-0.0128 -1.98986,-0.28577 -2.06088,-0.50794 -0.0167,-0.0523 0.0347,-0.0869 0.42393,-0.20755 z m 7.38795,-1.5801 0.51115,-0.0173 0.51113,-0.0173 -0.17383,0.1527 c -0.37479,0.32911 -0.84991,0.58895 -1.52118,0.83178 -0.48144,0.17414 -0.64243,0.24931 -0.59122,0.27568 0.10593,0.0547 1.77585,-0.48812 2.0692,-0.67249 0.22228,-0.13968 0.24026,-0.14305 0.41241,-0.0784 0.0991,0.0372 0.18554,0.0807 0.19225,0.0967 0.021,0.0498 -0.4554,0.44668 -0.70614,0.5882 -0.27339,0.15428 -0.86858,0.34487 -1.24511,0.39925 -0.88012,0.1265 -1.97689,0.0133 -1.80591,-0.18653 0.10951,-0.12796 0.64459,-0.39934 1.02998,-0.52253 0.4883,-0.15608 0.7991,-0.33845 1.12528,-0.65992 z m 3.71158,-1.09348 0.0477,0.14906 c 0.0656,0.20524 0.0473,0.42243 -0.0528,0.62841 -0.10973,0.22576 0.0111,0.19564 0.18598,-0.0464 0.10747,-0.14872 0.13529,-0.16552 0.19045,-0.11399 0.0914,0.0854 0.0577,0.16672 -0.13961,0.33833 -0.22566,0.1961 -0.47184,0.32155 -0.57751,0.29413 -0.0741,-0.0192 -0.0813,-0.0418 -0.0574,-0.17952 0.015,-0.0866 0.0842,-0.26874 0.15357,-0.40475 0.0694,-0.136 0.15408,-0.34115 0.18801,-0.45616 z m -16.9173,5.55579 0.98335,-0.30744 c 0.89952,-0.28121 1.0301,-0.31027 1.53393,-0.33905 1.18661,-0.0678 2.91639,-0.45289 4.31058,-0.95928 0.5359,-0.19464 0.82657,-0.27651 1.06465,-0.29987 l 0.32749,-0.0319 -0.18334,0.0954 c -0.80861,0.42134 -1.66585,0.76328 -2.91309,1.16226 -1.49555,0.47838 -2.04228,0.59073 -3.23311,0.66281 -0.37464,0.0226 -0.6864,0.051 -0.69279,0.063 -0.027,0.0509 1.41238,0.0165 1.99735,-0.0477 1.15418,-0.12679 1.95075,-0.32014 3.55227,-0.86163 0.7953,-0.26891 1.4797,-0.5172 1.52104,-0.55172 0.0671,-0.056 0.0733,-0.0477 0.0584,0.0785 -0.009,0.0777 0.0156,0.19361 0.0553,0.25746 0.0753,0.12133 0.38428,0.22632 0.53021,0.17999 0.15241,-0.0483 0.11873,0.0635 -0.0517,0.1717 -0.52917,0.33574 -0.92684,0.57216 -1.29049,0.76716 -0.39785,0.21332 -2.19007,0.85281 -2.61271,0.93227 -0.93857,0.17643 -1.96188,0.19442 -2.89442,0.0508 -1.22516,-0.18857 -1.88767,-0.47496 -2.01416,-0.8707 z m 10.61462,-2.85565 c 0.0286,-0.006 0.0356,0.006 0.0167,0.0383 -0.008,0.0135 -0.31077,0.28233 -0.67289,0.59747 -0.3621,0.31515 -0.64763,0.57834 -0.63443,0.58516 0.0132,0.007 0.40115,-0.21484 0.86219,-0.49268 l 0.83829,-0.50528 0.29881,0.0323 c 0.16437,0.0177 0.40501,0.0252 0.53487,0.0171 0.12986,-0.008 0.24198,0.003 0.24911,0.0256 0.0191,0.0596 -0.74247,0.58697 -1.11517,0.77208 -0.48812,0.24244 -1.13533,0.47342 -1.5742,0.56184 -0.40796,0.0822 -0.78954,0.0632 -0.82279,-0.0408 -0.0105,-0.033 0.17014,-0.26186 0.40174,-0.5085 0.34898,-0.3717 0.47435,-0.47201 0.73116,-0.58545 0.17042,-0.0753 0.4331,-0.22161 0.58378,-0.32547 0.14765,-0.10176 0.25513,-0.16187 0.30271,-0.17174 z m 5.42651,-1.51482 -0.12041,0.19234 c -0.0661,0.1058 -0.26713,0.34154 -0.44671,0.52386 -0.17956,0.18234 -0.29646,0.32297 -0.26015,0.312 0.13547,-0.0401 0.60864,-0.36428 0.80844,-0.55375 0.17831,-0.16915 0.22018,-0.18993 0.30455,-0.15273 0.0539,0.0237 0.13955,0.0382 0.1906,0.0324 0.17852,-0.0208 0.13855,0.0829 -0.13796,0.35672 -0.27852,0.27585 -0.27925,0.27607 -1.03644,0.536 -0.54377,0.18668 -0.77301,0.24714 -0.81131,0.21435 -0.0773,-0.0662 0.0774,-0.49905 0.28532,-0.79825 0.17032,-0.24514 0.19606,-0.26256 0.54827,-0.3754 0.20318,-0.0651 0.43826,-0.15649 0.52257,-0.20287 z m 1.59666,-0.32944 c 0.0479,-0.0172 0.0849,-0.006 0.099,0.0375 0.0319,0.0997 -0.12228,0.52632 -0.26314,0.72793 -0.069,0.0987 -0.22243,0.28201 -0.34088,0.40723 -0.24904,0.26324 -0.16895,0.26087 0.18801,-0.005 0.31129,-0.23213 0.48875,-0.43699 0.69268,-0.7997 0.15649,-0.27841 0.16468,-0.2848 0.35514,-0.28304 0.18746,0.002 0.19573,0.009 0.2193,0.18841 0.0615,0.46788 -0.1685,0.80503 -0.74649,1.09432 -0.44909,0.22479 -0.93216,0.40211 -1.23386,0.45274 -0.31335,0.0526 -0.33675,0.0462 -0.33703,-0.0947 -2.1e-4,-0.10663 0.64631,-0.99985 0.94861,-1.31051 0.0904,-0.0928 0.2055,-0.21965 0.25606,-0.28199 0.0564,-0.0696 0.11478,-0.11537 0.16258,-0.13282 z m -3.41372,1.52048 c 0.0309,-0.0161 0.0264,0.0197 0.004,0.1509 -0.017,0.10049 -0.009,0.20966 0.0173,0.24285 0.14494,0.1808 -0.69173,0.91116 -1.67429,1.46129 -0.59594,0.33368 -1.28454,0.53379 -1.62296,0.47152 -0.11576,-0.0212 -0.12378,-0.0338 -0.081,-0.12797 0.0882,-0.19399 1.6819,-1.64768 1.80363,-1.64509 0.0289,6.1e-4 -0.23427,0.2969 -0.58516,0.65874 -0.35089,0.36186 -0.62917,0.66262 -0.61827,0.66835 0.011,0.006 0.45021,-0.32391 0.97622,-0.73256 0.70745,-0.54963 1.04768,-0.78331 1.30741,-0.89775 0.19313,-0.085 0.38642,-0.18337 0.42957,-0.21847 0.0187,-0.0153 0.033,-0.0264 0.0433,-0.0318 z m 4.65266,-1.15371 c 0.0175,0.003 0.0548,0.0395 0.12785,0.11236 0.40348,0.40339 0.70911,1.15019 0.71496,1.74725 0.004,0.4481 -0.14065,0.90678 -0.52704,1.66667 -0.17389,0.34199 -0.3331,0.62707 -0.35359,0.63362 -0.081,0.0259 -0.12595,-0.29736 -0.14001,-1.00198 -0.0242,-1.2148 -0.0634,-1.83109 -0.12992,-2.04639 -0.0345,-0.11206 -0.0428,-0.22684 -0.0186,-0.25515 0.0324,-0.0378 0.0944,0.1293 0.23418,0.6296 0.17991,0.64437 0.23606,1.13204 0.18858,1.63841 -0.007,0.0699 0.004,0.0891 0.0313,0.0572 0.0767,-0.0896 0.17727,-0.97408 0.16497,-1.45217 -0.009,-0.3211 -0.0572,-0.64261 -0.15044,-0.9918 -0.076,-0.28417 -0.14412,-0.57485 -0.1514,-0.64596 -0.006,-0.0628 -0.009,-0.0943 0.009,-0.0916 z m -8.1392,2.95826 c 0.0984,-0.0308 0.0975,-0.0208 -0.0101,0.10917 -0.17037,0.20578 -0.19691,0.40361 -0.0747,0.55782 0.11852,0.1495 0.096,0.19749 -0.27634,0.58774 -0.55878,0.58564 -1.59511,1.31119 -2.53475,1.77479 -1.45663,0.71869 -2.48012,0.87584 -3.01481,0.46262 -0.22861,-0.17667 -0.20407,-0.2398 0.14789,-0.38075 0.21232,-0.085 0.44727,-0.23282 0.7003,-0.44029 0.30876,-0.25319 0.47067,-0.34766 0.8551,-0.49956 0.55528,-0.21944 1.27954,-0.56697 1.68537,-0.80863 0.15787,-0.094 0.29762,-0.16545 0.31039,-0.15889 0.0128,0.007 -0.21576,0.18592 -0.50789,0.39868 -0.59329,0.4321 -1.37934,0.90088 -2.07503,1.23765 l -0.46264,0.22415 0.59874,-0.21548 c 1.28773,-0.46321 2.76593,-1.34736 4.13281,-2.47206 0.22941,-0.18876 0.46604,-0.3584 0.52561,-0.37696 z m 5.26467,-1.65706 -0.007,0.12972 c -0.005,0.0922 0.0243,0.15469 0.10052,0.21659 0.0979,0.0794 0.10233,0.10444 0.0506,0.28374 -0.0725,0.25125 -0.36063,0.6154 -0.64802,0.81901 -0.15483,0.10973 -0.45539,0.23865 -0.97006,0.41634 -0.41004,0.1416 -0.77001,0.25572 -0.79999,0.25382 -0.0301,-0.002 -0.1214,0.003 -0.2031,0.0102 -0.14641,0.0133 -0.14778,0.0117 -0.0904,-0.11553 0.10179,-0.2256 0.58662,-0.96161 0.72277,-1.09716 0.0721,-0.0718 0.19118,-0.22578 0.26455,-0.34209 0.0734,-0.11631 -0.0275,0.11159 -0.22446,0.50629 l -0.35837,0.71762 0.58777,-0.73424 0.58777,-0.73421 0.49361,-0.16496 z m 3.47466,-1.05653 c 0.003,-0.029 0.23694,0.13952 0.40324,0.29781 l 0.16811,0.15979 -0.10767,-0.25929 -0.10739,-0.25939 0.19366,0.20507 c 0.33512,0.35501 0.41371,0.8563 0.19178,1.22308 -0.0451,0.0746 -0.1142,0.18065 -0.15346,0.23584 -0.0648,0.0912 -0.071,0.0913 -0.0665,5e-5 0.0157,-0.31539 -0.10394,-0.81365 -0.27764,-1.15618 -0.0989,-0.19499 -0.20289,-0.38472 -0.23096,-0.42167 -0.01,-0.0128 -0.0137,-0.021 -0.0131,-0.0252 z m -1.50582,1.01952 c 0.0482,0.0177 -0.16189,0.6025 -0.33389,0.92983 -0.23097,0.43953 -0.57723,0.79938 -1.00054,1.03991 -0.5253,0.29846 -1.04304,0.4246 -1.0936,0.26643 -0.0305,-0.0953 0.24922,-0.60902 0.44856,-0.82402 0.19511,-0.21045 0.46421,-0.70131 0.46605,-0.84985 4.3e-4,-0.0381 0.0427,-0.0739 0.0936,-0.0795 0.0772,-0.009 0.0681,0.059 -0.0539,0.40479 -0.0804,0.22804 -0.20358,0.52568 -0.27361,0.66151 -0.07,0.13584 -0.12333,0.25869 -0.11876,0.27299 0.0185,0.0578 0.46112,-0.55914 0.70904,-0.98813 l 0.26422,-0.45738 0.43603,-0.19217 c 0.23973,-0.10565 0.44519,-0.18873 0.45673,-0.18447 z m 0.32712,-0.0566 c 0.0513,-0.0234 0.10889,0.66188 0.11614,1.42296 0.0102,1.07265 -0.56489,2.39366 -1.31806,3.02754 -0.20819,0.17503 -0.58818,0.36072 -0.60849,0.29718 -0.003,-0.0122 0.0215,-0.11799 0.0561,-0.23538 0.0346,-0.11739 0.0701,-0.35217 0.079,-0.52173 0.0177,-0.33598 -0.0554,-1.15998 -0.12159,-1.37067 -0.0462,-0.1463 0.0144,-0.22795 0.26784,-0.36238 l 0.16746,-0.0891 0.0238,0.30109 c 0.0208,0.26205 0.0169,1.02911 -0.007,1.31223 -0.0167,0.20123 0.0462,0.0651 0.14441,-0.31314 0.10292,-0.39631 0.27099,-1.46948 0.24427,-1.55999 -0.008,-0.0268 0.0543,-0.12373 0.13847,-0.2154 0.23586,-0.25694 0.53057,-0.8059 0.6647,-1.23801 0.0667,-0.21505 0.13094,-0.41349 0.14235,-0.44091 0.003,-0.008 0.007,-0.0128 0.0101,-0.0143 z m -5.18472,1.87664 c 0.007,0.0205 -0.96049,1.60436 -1.20956,1.98101 -0.29061,0.43949 -0.78651,0.93833 -1.17194,1.1788 l 9e-5,3e-4 c -0.58191,0.36304 -1.35723,0.56682 -1.84241,0.4846 l -0.17707,-0.0298 0.25466,-0.3272 c 0.14,-0.17999 0.4066,-0.5575 0.59249,-0.83873 0.22202,-0.3359 0.45895,-0.61864 0.69061,-0.82448 0.1976,-0.17555 0.33628,-0.2726 0.3152,-0.22038 -0.0779,0.19303 -0.69051,1.12342 -0.93994,1.42737 -0.1427,0.17389 -0.25667,0.32497 -0.25328,0.33555 0.009,0.0294 0.4486,-0.37919 0.69678,-0.64812 0.4683,-0.50747 0.79597,-0.93914 1.19621,-1.57612 l 0.18573,-0.29603 0.49823,-0.15357 c 0.27399,-0.0844 0.64741,-0.23218 0.82957,-0.32857 0.18215,-0.0964 0.33277,-0.1705 0.33463,-0.16468 z m -0.0903,0.72093 c 0.0311,0.0973 -0.43454,1.28196 -0.71673,1.8238 -0.1819,0.34925 -0.30559,0.60677 -0.27506,0.57234 0.47867,-0.53959 1.13165,-1.56659 1.37392,-2.16133 l 0.12689,-0.31178 0.38453,-0.0933 c 0.21146,-0.0511 0.39315,-0.0893 0.40376,-0.085 0.0367,0.0148 -0.10921,0.83643 -0.26008,1.46465 -0.17175,0.71518 -0.29394,0.92129 -0.73174,1.23531 -0.55486,0.39798 -1.94519,0.7925 -2.24602,0.63741 -0.18092,-0.0933 -0.0887,-0.30369 0.34016,-0.77667 0.39996,-0.44107 0.81538,-1.0318 1.30412,-1.85444 0.15758,-0.26522 0.2908,-0.46805 0.29626,-0.45099 z m 2.2897,-0.63637 c 0.0185,0.01 0.0148,0.0786 -0.009,0.1533 -0.11181,0.35938 0.20692,0.61971 0.60352,0.49295 0.0899,-0.0288 0.15549,-0.0225 0.16791,0.0164 0.0112,0.0351 -0.0313,0.29529 -0.0949,0.578 -0.16539,0.73563 -0.57545,1.5289 -0.99179,1.91889 -0.37014,0.34673 -0.76692,0.53451 -1.01847,0.48203 -0.21469,-0.0448 -0.2657,-0.22033 -0.12021,-0.4147 0.22383,-0.29897 0.53659,-1.38955 0.70588,-2.46252 0.0678,-0.42947 0.12967,-0.60707 0.16891,-0.48428 0.0648,0.20296 -0.11215,1.61629 -0.28089,2.24191 -0.0595,0.22064 -0.0964,0.40733 -0.0819,0.41477 0.0792,0.0408 0.56675,-1.36275 0.70198,-2.02088 0.1394,-0.67838 0.20917,-0.93607 0.24839,-0.91587 z" />
      </g>
    </g>
  </g>
</svg>
